<?xml version="1.0" encoding="UTF-8" standalone="no"?>
<svg xmlns:dc="http://purl.org/dc/elements/1.1/" xmlns:cc="http://creativecommons.org/ns#"
   xmlns:rdf="http://www.w3.org/1999/02/22-rdf-syntax-ns#" xmlns:svg="http://www.w3.org/2000/svg"
   xmlns="http://www.w3.org/2000/svg" xmlns:sodipodi="http://sodipodi.sourceforge.net/DTD/sodipodi-0.dtd"
   xmlns:inkscape="http://www.inkscape.org/namespaces/inkscape" version="1.1" id="Layer_1" x="0px" y="0px"
   width="1200px" height="1200px" viewBox="0 0 1200 1200" style="enable-background:new 0 0 1200 1200;"
   xml:space="preserve" sodipodi:docname="yeom.svg" inkscape:version="1.0 (4035a4fb49, 2020-05-01)">
   <metadata id="metadata2517">
      <rdf:RDF>
         <cc:Work rdf:about="">
            <dc:format>image/svg+xml</dc:format>
            <dc:type rdf:resource="http://purl.org/dc/dcmitype/StillImage" />
            <dc:title></dc:title>
         </cc:Work>
      </rdf:RDF>
   </metadata>
   <defs id="defs2515" />
   <sodipodi:namedview inkscape:document-rotation="0" pagecolor="#ffffff" bordercolor="#666666" borderopacity="1"
      objecttolerance="10" gridtolerance="10" guidetolerance="10" inkscape:pageopacity="0" inkscape:pageshadow="2"
      inkscape:window-width="2400" inkscape:window-height="1271" id="namedview2513" showgrid="false"
      inkscape:zoom="0.69166667" inkscape:cx="600" inkscape:cy="542.16867" inkscape:window-x="2391"
      inkscape:window-y="-9" inkscape:window-maximized="1" inkscape:current-layer="Layer_1" />
   <g id="skeleton_1_">
      <polygon style="fill:none;stroke:#000000;stroke-miterlimit:10;"
         points="518.8,349.5 569.1,565.3 685.5,564.5 731.7,349.5  " id="polygon2396" />
      <polyline style="fill:none;stroke:#000000;stroke-miterlimit:10;" points="517.8,349.5 415.1,349.5 251.8,355.8  "
         id="polyline2398" />
      <polyline style="fill:none;stroke:#000000;stroke-miterlimit:10;" points="733.2,349.1 836.4,349.1 999.7,355.5  "
         id="polyline2400" />
      <polyline style="fill:none;stroke:#000000;stroke-miterlimit:10;" points="569.1,565.3 575.5,725.5 575.5,933.5  "
         id="polyline2402" />
      <polyline style="fill:none;stroke:#000000;stroke-miterlimit:10;" points="685.5,564.5 685.5,725.5 685.5,933.5  "
         id="polyline2404" />
      <polyline style="fill:none;stroke:#000000;stroke-miterlimit:10;"
         points="624.5,170 604.7,172.5 592.2,182 583.6,196.1    581.1,205.4 580.3,217.1 580.3,226.6 581.1,248.3 587.9,268.3 599.5,280.8 609.5,287.5 624.5,290.7 639.3,287.9 649.3,281.2    660.9,268.6 667.7,248.6 668.5,227 668.5,217.4 667.7,205.7 665.2,196.5 657,182 644.4,172.5 624.5,170  "
         id="polyline2406" />
      <polyline style="fill:none;stroke:#000000;stroke-miterlimit:10;"
         points="588.5,206.9 592.5,203.2 598.7,202.2 606,202.2    615.8,206.2  " id="polyline2408" />
      <polygon style="fill:none;stroke:#000000;stroke-miterlimit:10;"
         points="594.7,215.1 599.9,211.4 606.2,211.4 611.4,215.6    606.2,216.6 599.9,217.4  " id="polygon2410" />
      <polyline style="fill:none;stroke:#000000;stroke-miterlimit:10;"
         points="613,233.2 618.2,233.2 623.7,234 623.7,228.7    623.7,221.6 623.7,216.1 623.7,210.3  "
         id="polyline2412" />
      <polyline style="fill:none;stroke:#000000;stroke-miterlimit:10;"
         points="660,206.5 656,203.6 649.7,202.1 642.4,202.5    632.4,205.7  " id="polyline2414" />
      <polygon style="fill:none;stroke:#000000;stroke-miterlimit:10;"
         points="654.1,215.1 648.8,211.4 642.5,211.4 637.4,215.6    642.5,216.6 648.8,217.4  " id="polygon2416" />
      <polyline style="fill:none;stroke:#000000;stroke-miterlimit:10;" points="634.1,233.2 629.1,233.2 623.7,234  "
         id="polyline2418" />
      <polygon style="fill:none;stroke:#000000;stroke-miterlimit:10;"
         points="607,255.3 613.9,251.9 620.4,250.8 624.5,251.7    628.7,250.8 635.1,251.9 642,255.3 635.6,261.6 628.5,264.4 624.5,264.9 620.4,264.4 613.4,261.6  "
         id="polygon2420" />
      <polyline style="fill:none;stroke:#000000;stroke-miterlimit:10;"
         points="607,255.3 610.6,255.6 620.6,254.8 624.5,255.3    628.5,254.8 638.4,255.6 642,255.3  "
         id="polyline2422" />
      <polyline style="fill:none;stroke:#000000;stroke-miterlimit:10;"
         points="607,255.3 610.6,255.6 620.6,257.7 624.5,258.5    628.5,257.7 638.4,255.6 642,255.3  "
         id="polyline2424" />
      <circle id="rightShoulder" cx="518.9" cy="349.2" r="8.2" />
      <circle id="rightElbow" cx="415.4" cy="349.3" r="8.2" />
      <circle id="rightWrist" cx="252" cy="355.7" r="8.2" />
      <circle id="rightHip" cx="569.2" cy="565" r="8.2" />
      <circle id="rightKnee" cx="575.6" cy="725.2" r="8.2" />
      <circle id="rightAnkle" cx="575.6" cy="933.2" r="8.2" />
      <circle id="leftElbow" cx="836.2" cy="348.9" r="8.2" />
      <circle id="leftWrist" cx="999.6" cy="355.2" r="8.2" />
      <circle id="leftHip" cx="685.6" cy="564.2" r="8.2" />
      <circle id="leftKnee" cx="685.6" cy="725.2" r="8.2" />
      <circle id="leftAnkle" cx="685.6" cy="933.2" r="8.2" />
      <circle id="rightEye0" cx="594.7" cy="215.1" r="0.8" />
      <circle id="rightBrow1" cx="592.5" cy="203.2" r="0.8" />
      <circle id="rightBrow4" cx="615.8" cy="206.2" r="0.8" />
      <circle id="nose1" cx="623.7" cy="216.1" r="0.8" />
      <circle id="rightBrow3" cx="606" cy="202.2" r="0.8" />
      <circle id="rightEye1" cx="599.9" cy="211.4" r="0.8" />
      <circle id="rightBrow0" cx="588.5" cy="206.9" r="0.8" />
      <circle id="rightBrow2" cx="598.7" cy="202.2" r="0.8" />
      <circle id="rightEye5" cx="599.9" cy="217.4" r="0.8" />
      <circle id="rightEye2" cx="606.2" cy="211.4" r="0.8" />
      <circle id="rightEye3" cx="611.4" cy="215.6" r="0.8" />
      <circle id="nose0" cx="623.7" cy="210.3" r="0.8" />
      <circle id="nose3" cx="623.7" cy="228.7" r="0.8" />
      <circle id="rightNose0" cx="613" cy="233.2" r="0.8" />
      <circle id="rightMouthCorner" cx="607" cy="255.3" r="0.8" />
      <circle id="rightNose1" cx="618.2" cy="233.2" r="0.8" />
      <circle id="rightUpperLipTop0" cx="613.9" cy="251.9" r="0.8" />
      <circle id="nose2" cx="623.7" cy="221.6" r="0.8" />
      <circle id="nose4" cx="623.7" cy="234" r="0.8" />
      <circle id="upperLipTopMid" cx="624.5" cy="251.7" r="0.8" />
      <circle id="rightUpperLipTop1" cx="620.4" cy="250.8" r="0.8" />
      <path id="rightMiddleLip"
         d="M610.6,254.8c0.4,0,0.8,0.4,0.8,0.8c0,0.4-0.4,0.8-0.8,0.8s-0.8-0.4-0.8-0.8S610.2,254.8,610.6,254.8z   " />
      <circle id="lowerLipBottomMid" cx="624.5" cy="264.9" r="0.8" />
      <circle id="upperLipBottomMid" cx="624.5" cy="255.3" r="0.8" />
      <circle id="lowerLipTopMid" cx="624.5" cy="258.4" r="0.8" />
      <circle id="rightUpperLipBottom1" cx="620.6" cy="254.8" r="0.8" />
      <circle id="rightLowerLipTop0" cx="620.6" cy="257.7" r="0.8" />
      <circle id="rightLowerLipBottom1" cx="620.4" cy="264.4" r="0.8" />
      <circle id="rightLowerLipBottom0" cx="613.4" cy="261.6" r="0.8" />
      <circle id="rightEye4" cx="606.2" cy="216.6" r="0.8" />
      <circle id="jawMid" cx="624.5" cy="290.7" r="0.8" />
      <circle id="rightJaw7" cx="609.5" cy="287.5" r="0.8" />
      <circle id="rightJaw6" cx="599.5" cy="280.8" r="0.8" />
      <circle id="rightJaw5" cx="587.9" cy="268.3" r="0.8" />
      <circle id="rightJaw4" cx="581.1" cy="248.3" r="0.8" />
      <circle id="rightJaw3" cx="580.3" cy="226.6" r="0.8" />
      <circle id="rightJaw2" cx="580.3" cy="217.1" r="0.8" />
      <circle id="rightJaw1" cx="581.1" cy="205.4" r="0.8" />
      <circle id="rightJaw0" cx="583.6" cy="196.1" r="0.8" />
      <circle id="topMid" cx="624.7" cy="170" r="0.8" />
      <circle id="leftTop0" cx="644.4" cy="172.5" r="0.8" />
      <circle id="leftTop1" cx="657" cy="182" r="0.8" />
      <circle id="leftEye0" cx="654.3" cy="215.1" r="0.8" />
      <circle id="leftBrow1" cx="656.2" cy="203.6" r="0.8" />
      <circle id="leftBrow4" cx="632.6" cy="205.7" r="0.8" />
      <circle id="leftBrow3" cx="642.6" cy="202.5" r="0.8" />
      <circle id="leftEye1" cx="649.1" cy="211.4" r="0.8" />
      <circle id="leftBrow0" cx="660.2" cy="206.5" r="0.8" />
      <circle id="leftBrow2" cx="649.9" cy="202.1" r="0.8" />
      <circle id="leftEye5" cx="649.1" cy="217.4" r="0.8" />
      <circle id="leftEye2" cx="642.8" cy="211.4" r="0.8" />
      <circle id="leftEye3" cx="637.6" cy="215.6" r="0.8" />
      <circle id="leftNose0" cx="634.1" cy="233.2" r="0.8" />
      <circle id="leftMouthCorner" cx="642" cy="255.3" r="0.8" />
      <circle id="leftNose1" cx="629.3" cy="233.2" r="0.8" />
      <circle id="leftUpperLipTop0" cx="635.1" cy="251.9" r="0.8" />
      <circle id="leftUpperLipTop1" cx="628.7" cy="250.8" r="0.8" />
      <path id="leftMiddleLip"
         d="M638.4,254.8c0.4,0,0.8,0.4,0.8,0.8c0,0.4-0.4,0.8-0.8,0.8s-0.8-0.4-0.8-0.8S638,254.8,638.4,254.8z" />
      <circle id="leftUpperLipBottom1" cx="628.5" cy="254.8" r="0.8" />
      <circle id="leftLowerLipTop0" cx="628.5" cy="257.7" r="0.8" />
      <circle id="leftLowerLipBottom1" cx="628.7" cy="264.4" r="0.8" />
      <circle id="leftLowerLipBottom0" cx="635.6" cy="261.6" r="0.8" />
      <circle id="leftEye4" cx="642.8" cy="216.6" r="0.8" />
      <circle id="leftJaw7" cx="639.3" cy="287.9" r="0.8" />
      <circle id="leftJaw6" cx="649.3" cy="281.2" r="0.8" />
      <circle id="leftJaw5" cx="660.9" cy="268.6" r="0.8" />
      <circle id="leftJaw4" cx="667.7" cy="248.6" r="0.8" />
      <circle id="leftJaw3" cx="668.5" cy="227" r="0.8" />
      <circle id="leftJaw2" cx="668.5" cy="217.4" r="0.8" />
      <circle id="leftJaw1" cx="667.7" cy="205.7" r="0.8" />
      <circle id="leftJaw0" cx="665.2" cy="196.5" r="0.8" />
      <circle id="rightTop0" cx="604.8" cy="172.5" r="0.8" />
      <circle id="rightTop1" cx="592.2" cy="182" r="0.8" />
      <circle id="leftShoulder" cx="731.8" cy="349.2" r="8.2" />
   </g>

   <style type="text/css" id="style623">
      .st0 {
         fill: #60504B;
      }

      .st1 {
         fill: #FFFFFF;
      }

      .st2 {
         fill: #3D527F;
      }

      .st3 {
         fill: #F3AF9D;
      }

      .st4 {
         fill: #404040;
      }

      .st5 {
         fill: #808080;
      }

      .st6 {
         fill: #DD9B8E;
      }

      .st7 {
         fill: #DF7977;
      }

      .st8 {
         fill: #2C323A;
      }

      .st9 {
         fill: none;
         stroke: #FFB300;
         stroke-miterlimit: 10;
      }

      .st10 {
         fill: none;
         stroke: #FFB300;
         stroke-width: 1;
         stroke-miterlimit: 10;
      }

      .st11 {
         fill: none;
         stroke: #2C323A;
         stroke-width: 0.5;
         stroke-miterlimit: 10;
      }

      .st12 {
         display: none;
      }

      .st13 {
         display: inline;
      }

      .st14 {
         display: inline;
         fill: none;
         stroke: #000000;
         stroke-miterlimit: 10;
      }
   </style>
   <g transform="translate(126.1,55.7)" id="g1072">
      <g id="illustration_1_">
         <path class="st0" d="m 523.3,868 v 46.8 c 0,48.8 55.4,50.3 55.4,4.5 v -51.8 z" id="path625" />
         <rect x="535.70001" y="889.29999" class="st1" width="30.6" height="4.4000001" id="rect627" />
         <rect x="535.70001" y="897.70001" class="st1" width="30.6" height="4.4000001" id="rect629" />
         <rect x="535.70001" y="906.20001" class="st1" width="30.6" height="4.4000001" id="rect631" />
         <path class="st0" d="m 420,868 v 46.8 c 0,48.8 55.4,50.3 55.4,4.5 v -51.8 z" id="path633" />
         <path class="st2"
            d="m 394.4,493.8 c 0,66.4 0,148.9 0,228.2 0,55.8 0,110 0,155.8 56.6,0 58.8,0 99.7,0 0,-46.8 0,-101.4 0,-154.5 0,-75.9 0,-148.8 0,-191.6 5.9,0 14.5,0 19.9,0 0,41.3 0,115.8 0,191.6 0,54.9 0,110.4 0,154.5 45,0 34.6,0 91.7,0 0,-43 0,-97.5 0,-154.5 0,-79.5 0,-164 0,-229.5 z"
            id="path635" />
         <rect x="432.39999" y="889.29999" class="st1" width="30.6" height="4.4000001" id="rect637" />
         <rect x="432.39999" y="897.70001" class="st1" width="30.6" height="4.4000001" id="rect639" />
         <rect x="432.39999" y="906.20001" class="st1" width="30.6" height="4.4000001" id="rect641" />
         <path class="st3"
            d="m 843.8,326.2 17,-6.8 c 0,0 6.1,5.5 13,11.2 6.9,5.7 -4.7,18.4 -15.3,10.6 -10.7,-7.8 -14.7,-15 -14.7,-15 z"
            id="path643" />
         <path class="st3"
            d="m 291,273.7 c -47.7,2.7 -123.1,8.9 -160.2,14.2 -37.1,5.3 -40.1,40.1 5.3,39.5 45.4,-0.6 95.2,-3.5 159.7,-12.1 z"
            id="path645" />
         <path class="st3"
            d="m 155.6,326.2 -17,-6.8 c 0,0 -6.1,5.5 -13,11.2 -6.9,5.7 4.7,18.4 15.3,10.6 10.7,-7.8 14.7,-15 14.7,-15 z"
            id="path647" />
         <path class="st3"
            d="m 709.7,318.3 c 64.5,8.6 113.3,11.5 158.7,12.1 45.4,0.6 42.4,-34.2 5.3,-39.5 -37.1,-5.3 -114.5,-11.5 -162.2,-14.2 z"
            id="path649" />
         <path class="st4"
            d="m 545.7,290.4 43.3,53.2 c 27,-16.2 67.7,-16.3 126.6,-16.7 v -56.8 c -56,-3.4 -99.2,-10.4 -169.9,20.3 z"
            id="path651" />
         <path class="st4"
            d="m 285.8,267.1 3,56.8 c 58.9,0.3 93.5,-2.3 119.3,17.7 l 48.7,-50.2 c -54.3,-26.7 -115,-27.7 -171,-24.3 z"
            id="path653" />
         <path class="st5"
            d="m 376.9,509 c 0,-47.3 6,-116.9 31.1,-167.4 8.4,-16.8 18.9,-31.5 32,-42.5 15.7,-13.2 35.3,-21.2 59.4,-21.2 26.1,0 46.9,9.2 63.4,24.3 10.3,9.4 19,21.2 26.2,34.4 27.5,50.4 34.5,122.5 34.5,172.4 z"
            id="path655" />
         <ellipse class="st1" cx="500.89999" cy="304.29999" rx="22" ry="16.299999" id="ellipse657" />
         <path class="st3"
            d="m 489.5,211.9 h 20.9 c 0,0 4.3,67.3 5.7,90.8 -2.1,9.7 -9.1,11.3 -15.5,11.1 -8.2,-0.2 -15.9,-4.7 -17.1,-12.5 z"
            id="path659" />
         <path class="st6" d="m 489.5,211.9 h 20.9 c 1.9,19 -21.6,89.4 -26.8,89.4 z" id="path661" />

         <circle r="12.1" transform="matrix(0.0488993,-0.9988,0.9988,0.0488993,331.6472,732.048)" class="st7"
            cx="550.20001" cy="191.89999" id="ellipse663" />
         <circle r="12.1" class="st7" cx="449" cy="186.3" id="ellipse665" />

         <ellipse transform="matrix(0.04889971,-0.9988,0.9988,0.04889971,292.7605,673.3006)" class="st3" cx="499.89999"
            cy="182.89999" rx="61.799999" ry="45.799999" id="ellipse667" />
         <path class="st8"
            d="m 461.9,157.5 c 0.4,-2.1 0.8,-4.3 2,-6.1 2.3,-3.6 6.9,-5 11.1,-5.8 17.3,-3 35,0.4 52.3,3.9 1.1,0.2 2.2,0.4 3.1,1 1.1,0.7 1.9,1.9 2.5,3.1 3.3,5.8 5.6,12 7,18.5 0.9,4 1.8,8.8 5.5,10.6 0.2,0.1 0.4,0.2 0.5,0.2 4.6,-7.3 7.4,-15.8 7.9,-25 1.4,-28.4 -20.5,-52.6 -48.9,-54 -28.4,-1.4 -51.8,20.6 -54,48.9 -0.9,11.9 -2.9,20 3.2,28.9 -0.2,-8.9 6.2,-15.4 7.8,-24.2 z"
            id="path669" />
         <path class="st9" d="m 455.7,178.8 c 0,0.1 -0.1,0.1 0,0 -0.1,-0.1 0,-0.1 0,-0.1 1.1,-0.5 2.2,-1 3.4,-1.3"
            id="path671" />
         <path class="st9" d="m 529.4,176.8 c 0.4,-0.2 0.8,-0.1 1.3,0 5,1.6 9.9,3.4 14.7,5.5" id="path673" />
         <path class="st9"
            d="m 489.3,177.9 c -0.2,0 -0.3,0.1 -0.5,0.1 3.3,-1.4 7.1,-1.4 10.4,0 -0.1,0.1 -0.2,0.2 -0.3,0.3"
            id="path675" />

         <ellipse transform="matrix(0.0488993,-0.9988,0.9988,0.0488993,268.6285,646.5018)" class="st10" cx="473.79999"
            cy="182.2" rx="13.9" ry="15.2" id="ellipse677" />

         <ellipse transform="matrix(0.04889319,-0.9988,0.9988,0.04889319,308.6403,686.3167)" class="st10" cx="514.70001"
            cy="181.10001" rx="13.9" ry="15.2" id="ellipse679" />
         <g id="g697">
            <path id="rightMiddleLip_2_"
               d="m 484,214.4 c 0.3,0 0.5,0.3 0.5,0.5 0,0.2 -0.3,0.5 -0.5,0.5 -0.3,0 -0.5,-0.3 -0.5,-0.5 0,-0.2 0.3,-0.5 0.5,-0.5 z" />
            <circle id="upperLipBottomMid_1_" cx="495.79999" cy="214.7" r="0.5" />
            <circle id="rightUpperLipBottom1_1_" cx="493.29999" cy="214.39999" r="0.5" />
            <path id="leftMiddleLip_2_"
               d="m 507.6,214.4 c 0.3,0 0.5,0.3 0.5,0.5 0,0.2 -0.3,0.5 -0.5,0.5 -0.2,0 -0.5,-0.3 -0.5,-0.5 0,-0.2 0.2,-0.5 0.5,-0.5 z" />
            <circle id="leftUpperLipBottom1_1_" cx="498.29999" cy="214.39999" r="0.5" />
            <circle id="lowerLipTopMid_2_" cx="495.79999" cy="216.7" r="0.5" />
            <circle id="rightLowerLipTop0_2_" cx="493.29999" cy="216.2" r="0.5" />
            <circle id="leftLowerLipTop0_2_" cx="498.29999" cy="216.2" r="0.5" />
            <path class="st8"
               d="m 539.6,207.8 c 0,-0.5 -0.1,-1 -0.4,-1.4 -0.6,-0.6 -1.6,-0.2 -2.3,0.2 -6.9,4.2 -10.3,12.8 -17.5,16.4 -0.6,0.3 -1.2,0.5 -1.8,0.3 -0.7,-0.3 -0.9,-1.2 -1.1,-2 -0.9,-3.7 -3.5,-6.8 -6.6,-8.9 -3.2,-2.1 -6.9,-3.1 -10.7,-3.5 -5.9,-0.6 -12.1,0.5 -17.1,3.8 -2.1,1.4 -4.6,3.5 -5.3,6 -0.5,1.5 -0.3,5.6 -3.1,4.7 -0.8,-0.2 -1.3,-1 -1.7,-1.7 -3.2,-5.8 -6.1,-11.3 -9.3,-17.2 -0.3,-0.6 -2.2,-1.9 -2.8,-2.3 -0.6,-0.3 -3.2,-1.7 -3.5,-1.1 v 0 c -0.2,0 -0.4,0 -0.6,0.3 -0.4,0.4 -0.3,1 -0.3,1.5 0.4,2.9 1.6,5.7 2.8,8.4 1,2.2 2,4.5 3.2,6.6 0,0.1 0.1,0.1 0.1,0.2 0.8,2.6 2.6,4.8 3.9,7.1 2.6,4.7 5.5,9.3 9.3,13.2 3.8,3.8 8.6,6.8 13.9,7.6 2.2,0.3 4.4,0.3 6.5,0.2 5.6,-0.2 11.3,-0.3 16.5,-2.2 2.6,-0.9 5.1,-2.3 7.4,-3.7 5.7,-3.6 10.9,-8.1 14.7,-13.6 3.8,-5.4 6.1,-12.1 5.8,-18.9 z"
               id="path689" />
            <path class="st3"
               d="m 486.3,228 c -1.2,-0.6 -2.1,-1.6 -3,-2.6 -1,-1.2 -2,-2.4 -2.4,-3.8 -0.5,-1.4 0.4,-3.9 1.6,-4.4 1.9,-0.9 2.5,-2 4.6,-2.1 3.3,-0.3 6.6,-0.6 9.9,-0.9 2.4,-0.2 4.7,0.7 6.9,1.7 2.7,1.2 4.8,3 4.8,6 -0.1,2.9 -1.9,5.8 -4.5,7.1 -3.1,1.6 -6.3,0.9 -9.1,-0.7 -3.3,-1.9 -5.6,1.5 -8.8,-0.3 z"
               id="path691" />
            <path class="st8"
               d="m 491.4,222.1 c 0,0.6 0.4,1.1 0.7,1.5 0.1,0.1 0.3,0.3 0.4,0.4 0.3,0.2 0.7,0.1 1,0 0.8,-0.2 1.6,-0.6 2.1,-1.2 0.1,-0.1 0.2,-0.2 0.2,-0.3 0,-0.1 0,-0.2 0,-0.4 -0.1,-0.4 -0.2,-0.8 -0.4,-1.1 -0.2,-0.3 -0.6,-0.6 -1,-0.6 -0.2,0 -0.3,0 -0.5,0.1 -0.9,0 -2.5,0.4 -2.5,1.6 z"
               id="path693" />
            <path class="st7"
               d="m 481.3,217.4 c 0,0 4.8,-5.1 7.5,-5.5 2.7,-0.4 4.6,1.2 4.6,1.2 0,0 2.4,-1.6 4.2,-1.3 1.8,0.3 9.9,6.2 9.9,6.2 0,0 -7.7,4.5 -11.4,4.3 -3.7,-0.2 -7.4,-0.8 -14.9,-4.1"
               id="path695" />
         </g>
         <g id="g709">
            <path class="st11"
               d="m 508.9,176.6 c 4,-2.1 9.2,-1.8 12.9,0.9 0.2,0.1 0.4,0.3 0.5,0.6 0.1,0.3 -0.1,0.6 -0.4,0.7 -0.3,0.1 -0.5,0.2 -0.8,0.3 -3.7,0.7 -7.5,0.9 -11.2,1.1 -1.1,0.1 -2.3,0.1 -3.4,-0.3 -1.4,-0.6 1.8,-3 2.4,-3.3 z"
               id="path699" />
            <circle class="st8" cx="513.29999" cy="177.5" r="2.3" id="circle701" />
            <circle id="leftEye0_1_" cx="523.5" cy="177.7" r="0.80000001" />
            <circle id="leftEye1_1_" cx="518.29999" cy="174" r="0.80000001" />
            <circle id="leftEye5_1_" cx="518.29999" cy="180" r="0.80000001" />
            <circle id="leftEye2_1_" cx="512" cy="174" r="0.80000001" />
            <circle id="leftEye3_1_" cx="506.79999" cy="178.2" r="0.80000001" />
            <circle id="leftEye4_1_" cx="512" cy="179.2" r="0.80000001" />
         </g>
         <g id="g719">
            <path id="_x3C_패스_x3E_" class="st11"
               d="m 469.7,178.9 c 1.8,-1.3 3.9,-2.4 6.1,-2.6 2.2,-0.3 4.6,0.3 6.3,1.8 0.3,0.2 0.5,0.5 0.6,0.8 0.1,0.3 0,0.7 -0.2,0.9 -0.2,0.1 -0.3,0.2 -0.5,0.2 -0.5,0.1 -0.9,0 -1.4,0 -4.3,0 -8.6,1.4 -12.9,1.3 -0.3,-0.8 1.4,-2 2,-2.4 z" />
            <circle id="_x3C_패스_x3E__1_" class="st8" cx="475.39999" cy="178.3" r="2.2" />
            <circle id="rightEye0_1_" cx="466.79999" cy="178.7" r="0.80000001" />
            <circle id="rightEye1_1_" cx="472" cy="175" r="0.80000001" />
            <circle id="rightEye5_1_" cx="472" cy="181" r="0.80000001" />
            <circle id="rightEye2_1_" cx="478.29999" cy="175" r="0.80000001" />
            <circle id="rightEye3_1_" cx="483.5" cy="179.2" r="0.80000001" />
            <circle id="rightEye4_1_" cx="478.29999" cy="180.2" r="0.80000001" />
         </g>
         <g id="g728">
            <path class="st8"
               d="m 490.1,165.1 c -1.9,-4.2 -13.1,-2.2 -17.9,-1.4 -0.7,0.1 -2.1,0.3 -3.5,1.3 -3.1,2.1 -4.6,6.3 -3.6,7.2 0.8,0.8 2.6,-1.4 6.4,-2.6 8.4,-2.7 14.9,2.9 17.8,-0.2 1.2,-1.1 1.4,-3 0.8,-4.3 z"
               id="path721" />
            <circle id="rightBrow1_1_" cx="465.20001" cy="163.7" r="0.80000001" />
            <circle id="rightBrow4_1_" cx="488.5" cy="166.7" r="0.80000001" />
            <circle id="rightBrow3_1_" cx="478.70001" cy="162.7" r="0.80000001" />
            <circle id="rightBrow0_1_" cx="461.20001" cy="167.39999" r="0.80000001" />
            <circle id="rightBrow2_1_" cx="471.39999" cy="162.7" r="0.80000001" />
         </g>
         <g id="g737">
            <path class="st8"
               d="m 499.5,165.1 c 1.8,-4.2 13.1,-2.6 17.8,-1.9 0.6,0.1 2,0.3 3.5,1.2 2.9,1.7 4.8,5.1 4.1,5.8 -0.6,0.6 -2.5,-1.1 -5.7,-2 -8.8,-2.6 -15.8,4.2 -19,1.1 -1,-1 -1.2,-2.9 -0.7,-4.2 z"
               id="path730" />
            <circle id="leftBrow1_1_" cx="526.70001" cy="164.60001" r="0.80000001" />
            <circle id="leftBrow4_1_" cx="503.10001" cy="166.7" r="0.80000001" />
            <circle id="leftBrow3_1_" cx="513.09998" cy="163.5" r="0.80000001" />
            <circle id="leftBrow0_1_" cx="530.70001" cy="167.5" r="0.80000001" />
            <circle id="leftBrow2_1_" cx="520.40002" cy="163.10001" r="0.80000001" />
         </g>
         <g id="g756">
            <circle class="st8" cx="499.60001" cy="202" r="1.8" id="circle739" />
            <circle class="st8" cx="488.79999" cy="202" r="1.8" id="circle741" />
            <path class="st11"
               d="m 484.6,196.8 c -0.8,0.7 -1.4,1.6 -1.7,2.7 -0.2,0.7 -0.2,1.4 -0.1,2.1 0.1,0.5 0.2,0.9 0.4,1.4 0.4,0.9 1.1,1.6 2,1.9"
               id="path743" />
            <path class="st11"
               d="m 503.8,197.1 c 0.1,0 0,0 0,0 -0.1,0.1 0,0.1 0,0 0.9,0.5 1.6,1.4 1.9,2.3 0.3,0.9 0.3,2 0.1,2.9 -0.2,0.9 -0.7,1.9 -1.6,2.3"
               id="path745" />
            <circle id="nose1_1_" cx="493.89999" cy="185.39999" r="0.80000001" />
            <circle id="nose0_1_" cx="493.89999" cy="179.60001" r="0.80000001" />
            <circle id="nose3_1_" cx="493.89999" cy="198" r="0.80000001" />
            <circle id="rightNose0_1_" cx="483.20001" cy="202.5" r="0.80000001" />
            <circle id="rightNose1_1_" cx="488.39999" cy="202.5" r="0.80000001" />
            <circle id="nose2_1_" cx="493.89999" cy="190.89999" r="0.80000001" />
            <circle id="nose4_1_" cx="493.89999" cy="203.3" r="0.80000001" />
            <circle id="leftNose0_1_" cx="504.29999" cy="202.5" r="0.80000001" />
            <circle id="leftNose1_1_" cx="499.5" cy="202.5" r="0.80000001" />
         </g>
      </g>
   </g>
</svg>