<?xml version="1.0" encoding="UTF-8" standalone="no"?>
<svg
   xmlns:dc="http://purl.org/dc/elements/1.1/"
   xmlns:cc="http://creativecommons.org/ns#"
   xmlns:rdf="http://www.w3.org/1999/02/22-rdf-syntax-ns#"
   xmlns:svg="http://www.w3.org/2000/svg"
   xmlns="http://www.w3.org/2000/svg"
   xmlns:sodipodi="http://sodipodi.sourceforge.net/DTD/sodipodi-0.dtd"
   xmlns:inkscape="http://www.inkscape.org/namespaces/inkscape"
   inkscape:version="1.0 (4035a4fb49, 2020-05-01)"
   sodipodi:docname="boy.svg"
   xml:space="preserve"
   style="enable-background:new 0 0 1000 1000;"
   viewBox="0 0 1000 1000"
   height="1000px"
   width="1000px"
   y="0px"
   x="0px"
   id="Layer_1"
   version="1.1"><metadata
   id="metadata241"><rdf:RDF><cc:Work
       rdf:about=""><dc:format>image/svg+xml</dc:format><dc:type
         rdf:resource="http://purl.org/dc/dcmitype/StillImage" /><dc:title></dc:title></cc:Work></rdf:RDF></metadata><defs
   id="defs239" /><sodipodi:namedview
   inkscape:current-layer="Layer_1"
   inkscape:window-maximized="1"
   inkscape:window-y="-9"
   inkscape:window-x="-9"
   inkscape:cy="500"
   inkscape:cx="500"
   inkscape:zoom="0.83"
   showgrid="false"
   id="namedview237"
   inkscape:window-height="1001"
   inkscape:window-width="1920"
   inkscape:pageshadow="2"
   inkscape:pageopacity="0"
   guidetolerance="10"
   gridtolerance="10"
   objecttolerance="10"
   borderopacity="1"
   bordercolor="#666666"
   pagecolor="#ffffff" />
<g
   id="illustration">
	<path
   id="path2"
   d="M523.3,868v46.8c0,48.8,55.4,50.3,55.4,4.5v-51.8L523.3,868z"
   style="fill:#60504B;" />
	<rect
   id="rect4"
   height="4.4"
   width="30.6"
   style="fill:#FFFFFF;"
   y="889.3"
   x="535.7" />
	<rect
   id="rect6"
   height="4.4"
   width="30.6"
   style="fill:#FFFFFF;"
   y="897.7"
   x="535.7" />
	<rect
   id="rect8"
   height="4.4"
   width="30.6"
   style="fill:#FFFFFF;"
   y="906.2"
   x="535.7" />
	<path
   id="path10"
   d="M420,868v46.8c0,48.8,55.4,50.3,55.4,4.5v-51.8L420,868z"
   style="fill:#60504B;" />
	<path
   id="path12"
   d="M394.4,493.8c0,66.4,0,148.9,0,228.2c0,55.8,0,110,0,155.8c56.6,0,58.8,0,99.7,0   c0-46.8,0-101.4,0-154.5c0-75.9,0-148.8,0-191.6c5.9,0,14.5,0,19.9,0c0,41.3,0,115.8,0,191.6c0,54.9,0,110.4,0,154.5   c45,0,34.6,0,91.7,0c0-43,0-97.5,0-154.5c0-79.5,0-164,0-229.5H394.4z"
   style="fill:#3D527F;" />
	<rect
   id="rect14"
   height="4.4"
   width="30.6"
   style="fill:#FFFFFF;"
   y="889.3"
   x="432.4" />
	<rect
   id="rect16"
   height="4.4"
   width="30.6"
   style="fill:#FFFFFF;"
   y="897.7"
   x="432.4" />
	<rect
   id="rect18"
   height="4.4"
   width="30.6"
   style="fill:#FFFFFF;"
   y="906.2"
   x="432.4" />
	<path
   id="path20"
   d="M376.9,509c0-47.3,6-116.9,31.1-167.4c8.4-16.8,18.9-31.5,32-42.5c15.7-13.2,35.3-21.2,59.4-21.2   c26.1,0,46.9,9.2,63.4,24.3c10.3,9.4,19,21.2,26.2,34.4c27.5,50.4,34.5,122.5,34.5,172.4L376.9,509L376.9,509z"
   style="fill:#ABD1D5;" />
	<line
   id="line22"
   y2="509.6"
   x2="384"
   y1="509.6"
   x1="616.8"
   style="fill:none;" />
	<ellipse
   id="ellipse24"
   ry="16.3"
   rx="22"
   cy="304.3"
   cx="500.9"
   style="fill:#FFFFFF;" />
	<path
   id="path26"
   d="M843.8,326.2l17-6.8c0,0,6.1,5.5,13,11.2s-4.7,18.4-15.3,10.6C847.8,333.4,843.8,326.2,843.8,326.2z   "
   style="fill:#F3AF9D;" />
	<path
   id="path28"
   d="M285.8,267.1l3,56.8c58.9,0.3,93.5-2.3,119.3,17.7l48.7-50.2C402.5,264.7,341.8,263.7,285.8,267.1z"
   style="fill:#99AFB1;" />
	<path
   id="path30"
   d="M545.7,290.4l43.3,53.2c27-16.2,67.7-16.3,126.6-16.7v-56.8C659.6,266.7,616.4,259.7,545.7,290.4z"
   style="fill:#99AFB1;" />
	<path
   id="path32"
   d="M291,273.7c-47.7,2.7-123.1,8.9-160.2,14.2c-37.1,5.3-40.1,40.1,5.3,39.5s95.2-3.5,159.7-12.1   L291,273.7z"
   style="fill:#F3AF9D;" />
	<path
   id="path34"
   d="M155.6,326.2l-17-6.8c0,0-6.1,5.5-13,11.2c-6.9,5.7,4.7,18.4,15.3,10.6   C151.6,333.4,155.6,326.2,155.6,326.2z"
   style="fill:#F3AF9D;" />
	<path
   id="path36"
   d="M709.7,318.3c64.5,8.6,113.3,11.5,158.7,12.1s42.4-34.2,5.3-39.5c-37.1-5.3-114.5-11.5-162.2-14.2   L709.7,318.3z"
   style="fill:#F3AF9D;" />
	<path
   id="path38"
   d="M489.5,211.9h20.9c0,0,4.3,67.3,5.7,90.8c-2.1,9.7-9.1,11.3-15.5,11.1c-8.2-0.2-15.9-4.7-17.1-12.5   L489.5,211.9z"
   style="fill:#F3AF9D;" />
	<path
   id="path40"
   d="M489.5,211.9h20.9c1.9,19-21.6,89.4-26.8,89.4L489.5,211.9z"
   style="fill:#DD9B8E;" />
	<path
   id="path42"
   d="M499,113c-27,0-89,8-56,64c24.8,42.1,88,44,110,3S549,113,499,113z"
   style="fill:#72605A;" />
	<circle
   id="circle44"
   r="12.1"
   cy="182.8"
   cx="560.2"
   style="fill:#DF7977;" />
	<circle
   id="circle46"
   r="12.1"
   cy="182.8"
   cx="437.6"
   style="fill:#DF7977;" />
	<ellipse
   id="ellipse48"
   ry="57.6"
   rx="57"
   cy="177.4"
   cx="499.8"
   style="fill:#F3AF9D;" />
	<g
   id="g60">
		<path
   d="M487.5,209.6c0.3,0,0.5,0.3,0.5,0.5s-0.3,0.5-0.5,0.5c-0.3,0-0.5-0.3-0.5-0.5    S487.3,209.6,487.5,209.6z"
   id="rightMiddleLip_2_" />
		<circle
   r="0.5"
   cy="209.9"
   cx="499.3"
   id="upperLipBottomMid_1_" />
		<circle
   r="0.5"
   cy="209.6"
   cx="496.8"
   id="rightUpperLipBottom1_1_" />
		<path
   d="M511.1,209.6c0.3,0,0.5,0.3,0.5,0.5s-0.3,0.5-0.5,0.5s-0.5-0.3-0.5-0.5S510.8,209.6,511.1,209.6z"
   id="leftMiddleLip_2_" />
		<circle
   r="0.5"
   cy="209.6"
   cx="501.8"
   id="leftUpperLipBottom1_1_" />
		<path
   id="path55"
   d="M488,210.1c0,0,7.7-0.1,11.3-0.1    s11.9-0.1,11.9-0.1s-6.9,2.6-11.9,2.6C494.2,212.5,488,210.1,488,210.1z"
   style="fill:#DF7977;stroke:#DF7977;stroke-width:2;stroke-miterlimit:10;" />
		<circle
   r="0.5"
   cy="211.9"
   cx="499.3"
   id="lowerLipTopMid_2_" />
		<circle
   r="0.5"
   cy="211.4"
   cx="496.8"
   id="rightLowerLipTop0_2_" />
		<circle
   r="0.5"
   cy="211.4"
   cx="501.8"
   id="leftLowerLipTop0_2_" />
	</g>
	<g
   id="g72">
		<ellipse
   id="ellipse62"
   ry="6.2"
   rx="7.8"
   cy="196.5"
   cx="464.1"
   style="fill:#DF7977;" />
		<ellipse
   id="ellipse64"
   ry="5.8"
   rx="3.6"
   cy="180.6"
   cx="464"
   style="fill:#2C323A;" />
		<circle
   r="0.8"
   cy="160.2"
   cx="468.6"
   id="rightEye0_1_" />
		<circle
   r="0.8"
   cy="156.5"
   cx="473.8"
   id="rightEye1_1_" />
		<circle
   r="0.8"
   cy="162.5"
   cx="473.8"
   id="rightEye5_1_" />
		<circle
   r="0.8"
   cy="156.5"
   cx="480.1"
   id="rightEye2_1_" />
		<circle
   r="0.8"
   cy="160.7"
   cx="485.3"
   id="rightEye3_1_" />
		<circle
   r="0.8"
   cy="161.7"
   cx="480.1"
   id="rightEye4_1_" />
	</g>
	<g
   id="g84">
		<ellipse
   id="ellipse74"
   ry="5.8"
   rx="3.6"
   cy="179.6"
   cx="532.8"
   style="fill:#2C323A;" />
		<ellipse
   id="ellipse76"
   ry="6.2"
   rx="7.8"
   cy="196.5"
   cx="533.2"
   style="fill:#DF7977;" />
		<circle
   r="0.8"
   cy="160.2"
   cx="528.2"
   id="leftEye0_1_" />
		<circle
   r="0.8"
   cy="156.5"
   cx="523"
   id="leftEye1_1_" />
		<circle
   r="0.8"
   cy="162.5"
   cx="523"
   id="leftEye5_1_" />
		<circle
   r="0.8"
   cy="156.5"
   cx="516.7"
   id="leftEye2_1_" />
		<circle
   r="0.8"
   cy="160.7"
   cx="511.5"
   id="leftEye3_1_" />
		<circle
   r="0.8"
   cy="161.7"
   cx="516.7"
   id="leftEye4_1_" />
	</g>
	<g
   id="g93">
		<path
   id="path86"
   d="M518.8,159.9c10.7-5,14.2-5,19.2,0.7C533,159.9,532.3,163.4,518.8,159.9z"
   style="fill:#2C323A;" />
		<circle
   r="0.8"
   cy="148.7"
   cx="530.1"
   id="leftBrow1_1_" />
		<circle
   r="0.8"
   cy="150.8"
   cx="506.5"
   id="leftBrow4_1_" />
		<circle
   r="0.8"
   cy="147.6"
   cx="516.5"
   id="leftBrow3_1_" />
		<circle
   r="0.8"
   cy="151.6"
   cx="534.1"
   id="leftBrow0_1_" />
		<circle
   r="0.8"
   cy="147.2"
   cx="523.8"
   id="leftBrow2_1_" />
	</g>
	<g
   id="g102">
		<path
   id="path95"
   d="M478,159.9c-10.7-5-14.2-5-19.2,0.7C463.8,159.9,464.5,163.4,478,159.9z"
   style="fill:#2C323A;" />
		<circle
   r="0.8"
   cy="148.3"
   cx="466.4"
   id="rightBrow1_1_" />
		<circle
   r="0.8"
   cy="151.3"
   cx="489.7"
   id="rightBrow4_1_" />
		<circle
   r="0.8"
   cy="147.3"
   cx="479.9"
   id="rightBrow3_1_" />
		<circle
   r="0.8"
   cy="152"
   cx="462.4"
   id="rightBrow0_1_" />
		<circle
   r="0.8"
   cy="147.3"
   cx="472.6"
   id="rightBrow2_1_" />
	</g>
	<path
   id="path104"
   d="M456,138c1.9,7.7,62.3,20.7,82-3c10-12,9-22,4-25c-4.4-2.6-9-6-22,6c-1-9,1-15-16-17   C476.2,95.7,451.6,120,456,138z"
   style="fill:#72605A;" />
	<g
   id="g117">
		<path
   id="path106"
   d="M496.4,185.8c-1.2,0-4.6,1.6-5.8,5.2    c-0.2,1.2,0.6,5.8,6,4.1c-0.1-1-4.7-1.1-4.5-3.7C492.4,189.6,494.1,189.6,496.4,185.8z"
   style="fill:#2C323A;stroke:#2C323A;stroke-width:2;stroke-miterlimit:10;" />
		<circle
   r="0.8"
   cy="161.2"
   cx="497.6"
   id="nose1_1_" />
		<circle
   r="0.8"
   cy="155.4"
   cx="497.6"
   id="nose0_1_" />
		<circle
   r="0.8"
   cy="173.8"
   cx="497.6"
   id="nose3_1_" />
		<circle
   r="0.8"
   cy="178.3"
   cx="486.9"
   id="rightNose0_1_" />
		<circle
   r="0.8"
   cy="178.3"
   cx="492.1"
   id="rightNose1_1_" />
		<circle
   r="0.8"
   cy="166.7"
   cx="497.6"
   id="nose2_1_" />
		<circle
   r="0.8"
   cy="179.1"
   cx="497.6"
   id="nose4_1_" />
		<circle
   r="0.8"
   cy="178.3"
   cx="508"
   id="leftNose0_1_" />
		<circle
   r="0.8"
   cy="178.3"
   cx="503.2"
   id="leftNose1_1_" />
	</g>
</g>

</svg>
