<?xml version="1.0" encoding="UTF-8" standalone="no"?>
<svg
   xmlns:dc="http://purl.org/dc/elements/1.1/"
   xmlns:cc="http://creativecommons.org/ns#"
   xmlns:rdf="http://www.w3.org/1999/02/22-rdf-syntax-ns#"
   xmlns:svg="http://www.w3.org/2000/svg"
   xmlns="http://www.w3.org/2000/svg"
   xmlns:sodipodi="http://sodipodi.sourceforge.net/DTD/sodipodi-0.dtd"
   xmlns:inkscape="http://www.inkscape.org/namespaces/inkscape"
   inkscape:version="1.0 (4035a4fb49, 2020-05-01)"
   sodipodi:docname="girl.svg"
   xml:space="preserve"
   style="enable-background:new 0 0 1200 1200;"
   viewBox="0 0 1200 1200"
   height="1200px"
   width="1200px"
   y="0px"
   x="0px"
   id="Layer_1"
   version="1.1"><metadata
   id="metadata283"><rdf:RDF><cc:Work
       rdf:about=""><dc:format>image/svg+xml</dc:format><dc:type
         rdf:resource="http://purl.org/dc/dcmitype/StillImage" /><dc:title></dc:title></cc:Work></rdf:RDF></metadata><defs
   id="defs281" /><sodipodi:namedview
   inkscape:current-layer="Layer_1"
   inkscape:window-maximized="1"
   inkscape:window-y="-9"
   inkscape:window-x="-9"
   inkscape:cy="600"
   inkscape:cx="600"
   inkscape:zoom="0.69166667"
   showgrid="false"
   id="namedview279"
   inkscape:window-height="1001"
   inkscape:window-width="1920"
   inkscape:pageshadow="2"
   inkscape:pageopacity="0"
   guidetolerance="10"
   gridtolerance="10"
   objecttolerance="10"
   borderopacity="1"
   bordercolor="#666666"
   pagecolor="#ffffff" />
<g
   id="illustration_1_">
	<path
   id="path2"
   d="M647.9,923.2V970c0,48.8,55.4,50.3,55.4,4.5v-51.8L647.9,923.2z"
   style="fill:#60504B;" />
	<rect
   id="rect4"
   height="4.4"
   width="30.6"
   style="fill:#FFFFFF;"
   y="944.5"
   x="660.3" />
	<rect
   id="rect6"
   height="4.4"
   width="30.6"
   style="fill:#FFFFFF;"
   y="952.9"
   x="660.3" />
	<rect
   id="rect8"
   height="4.4"
   width="30.6"
   style="fill:#FFFFFF;"
   y="961.4"
   x="660.3" />
	<path
   id="path10"
   d="M544.6,923.2V970c0,48.8,55.4,50.3,55.4,4.5v-51.8L544.6,923.2z"
   style="fill:#60504B;" />
	<path
   id="path12"
   d="M518.9,549c0,66.4,0,148.9,0,228.2c0,55.8,0,110,0,155.8c56.6,0,51.8,0,92.7,0   c0-46.8,0-101.4,0-154.5c0-75.9,0-148.8,0-191.6c5.9,0,20.5,0,25.9,0c0,41.3,0,115.8,0,191.6c0,54.9,0,110.4,0,154.5   c45,0,35.6,0,92.7,0c0-43,0-97.5,0-154.5c0-79.5,0-164,0-229.5H518.9z"
   style="fill:#B1C9C3;" />
	<rect
   id="rect14"
   height="4.4"
   width="30.6"
   style="fill:#FFFFFF;"
   y="944.5"
   x="557" />
	<rect
   id="rect16"
   height="4.4"
   width="30.6"
   style="fill:#FFFFFF;"
   y="952.9"
   x="557" />
	<rect
   id="rect18"
   height="4.4"
   width="30.6"
   style="fill:#FFFFFF;"
   y="961.4"
   x="557" />
	<g
   id="g40">
		<path
   id="path20"
   d="M675,319.9c-27.8-13.5-68.3-15.8-101.3-0.1c-5.1-10.8-14-45.8-13.1-80.4    c1.1-40.5,15.5-80.5,65.3-80.4c47.8,0,61.8,39.1,62.5,79.7C688.4,271.8,675,319.9,675,319.9z"
   style="fill:#60504B;" />
		<circle
   id="circle22"
   r="12.1"
   cy="233.8"
   cx="686.2"
   style="fill:#DF7977;" />
		<circle
   id="circle24"
   r="12.1"
   cy="233.8"
   cx="563.6"
   style="fill:#DF7977;" />
		<circle
   r="0.8"
   cy="284.1"
   cx="625.5"
   id="jawMid_2_" />
		<circle
   r="0.8"
   cy="282.1"
   cx="614.6"
   id="rightJaw7_2_" />
		<circle
   r="0.8"
   cy="282.1"
   cx="636.4"
   id="leftJaw7_2_" />
		<circle
   r="0.8"
   cy="226.6"
   cx="580.3"
   id="rightJaw3_2_" />
		<circle
   r="0.8"
   cy="217.1"
   cx="580.3"
   id="rightJaw2_2_" />
		<circle
   r="0.8"
   cy="227"
   cx="668.5"
   id="leftJaw3_2_" />
		<circle
   r="0.8"
   cy="217.4"
   cx="668.5"
   id="leftJaw2_2_" />
		<circle
   r="0.8"
   cy="166"
   cx="624.7"
   id="topMid_2_" />
		<circle
   r="0.8"
   cy="168.5"
   cx="642.4"
   id="leftTop0_2_" />
		<circle
   r="0.8"
   cy="168.5"
   cx="606.8"
   id="rightTop0_2_" />
		<path
   id="path36"
   d="M651.6,162.2c1.3-3.6,2.1-7.4,2.5-11.2c2.6,3.1,3.8,7.4,3.2,11.4c-0.1,0.7-0.3,1.5-0.7,2.1    c-0.7,0.9-1.9,1.2-3,1.4c-1.8,0.4-3.6,0.8-5.5,1C649.7,165.5,650.9,164.2,651.6,162.2z"
   style="fill:#60504B;" />
		<path
   id="path38"
   d="M650.5,166.7c5.8-0.4,10.8-5.7,11-11.5c2.3,1,3.4,3.9,2.7,6.3c-0.7,2.4-2.9,4.2-5.3,4.9    c-2.4,0.7-5,0.4-7.4-0.3"
   style="fill:#60504B;" />
	</g>
	<path
   id="path42"
   d="M501.5,564.2c-1.3-73.2,11.7-128.9,32.3-167.4c12.6-23.6,28-40.7,44.8-51.6   c14.7-9.5,30.5-14.1,46.2-13.9c15.6,0.2,31.3,5.2,45.9,14.8c16.5,10.9,31.8,27.8,44.3,50.7c21.3,38.8,34.7,94.8,33.1,167.4H501.5   L501.5,564.2z"
   style="fill:#BF4C68;" />
	<line
   id="line44"
   y2="564.8"
   x2="508.6"
   y1="564.8"
   x1="741.4"
   style="fill:none;" />
	<ellipse
   id="ellipse46"
   ry="16.3"
   rx="22"
   cy="351.3"
   cx="625.4"
   style="fill:#FFFFFF;" />
	<path
   id="path48"
   d="M616.2,277.5"
   style="fill:#F3AF9D;" />
	<path
   id="path50"
   d="M614.2,265.7h20.9c0,0,4.3,61.7,5.7,85.2c-2.1,9.7-9.1,11.3-15.5,11.1c-8.2-0.2-15.9-4.7-17.1-12.5   L614.2,265.7z"
   style="fill:#F3AF9D;" />
	<path
   id="path52"
   d="M614.2,265.7h20.9c1.9,19-21.7,83.8-26.9,83.8L614.2,265.7z"
   style="fill:#DD9B8E;" />
	<g
   id="g66">
		<ellipse
   id="ellipse54"
   ry="57.6"
   rx="56.4"
   cy="228.3"
   cx="625.2"
   style="fill:#F3AF9D;" />
		<circle
   r="0.8"
   cy="284.1"
   cx="625.5"
   id="jawMid_1_" />
		<circle
   r="0.8"
   cy="282.1"
   cx="614.6"
   id="rightJaw7_1_" />
		<circle
   r="0.8"
   cy="282.1"
   cx="636.4"
   id="leftJaw7_1_" />
		<circle
   r="0.8"
   cy="226.6"
   cx="580.3"
   id="rightJaw3_1_" />
		<circle
   r="0.8"
   cy="217.1"
   cx="580.3"
   id="rightJaw2_1_" />
		<circle
   r="0.8"
   cy="227"
   cx="668.5"
   id="leftJaw3_1_" />
		<circle
   r="0.8"
   cy="217.4"
   cx="668.5"
   id="leftJaw2_1_" />
		<circle
   r="0.8"
   cy="166"
   cx="624.7"
   id="topMid_3_" />
		<circle
   r="0.8"
   cy="168.5"
   cx="642.4"
   id="leftTop0_3_" />
		<circle
   r="0.8"
   cy="168.5"
   cx="606.8"
   id="rightTop0_3_" />
	</g>
	<g
   id="g75">
		<path
   id="path68"
   d="M578.7,221.9c3.1-6.1,13.1-6.7,21.1-6.1c0.7,2.3,0.7,3.8-0.1,3.7    C596.6,219.4,589.5,215.6,578.7,221.9z"
   style="fill:#2C323A;" />
		<circle
   r="0.8"
   cy="203.2"
   cx="592.5"
   id="rightBrow1_1_" />
		<circle
   r="0.8"
   cy="206.2"
   cx="615.8"
   id="rightBrow4_1_" />
		<circle
   r="0.8"
   cy="202.2"
   cx="606"
   id="rightBrow3_1_" />
		<circle
   r="0.8"
   cy="206.9"
   cx="588.5"
   id="rightBrow0_1_" />
		<circle
   r="0.8"
   cy="202.2"
   cx="598.7"
   id="rightBrow2_1_" />
	</g>
	<g
   id="g84">
		<path
   id="path77"
   d="M666.7,220.8c-7.5-3.4-8.8-2.2-19-1c-0.3-0.8-0.5-1.7-0.1-4c6,0.5,16-2.3,21.1,6.1    C668,221.5,667.4,221.1,666.7,220.8z"
   style="fill:#2C323A;" />
		<circle
   r="0.8"
   cy="203.6"
   cx="656.2"
   id="leftBrow1_1_" />
		<circle
   r="0.8"
   cy="205.7"
   cx="632.6"
   id="leftBrow4_1_" />
		<circle
   r="0.8"
   cy="202.5"
   cx="642.6"
   id="leftBrow3_1_" />
		<circle
   r="0.8"
   cy="206.5"
   cx="660.2"
   id="leftBrow0_1_" />
		<circle
   r="0.8"
   cy="202.1"
   cx="649.9"
   id="leftBrow2_1_" />
	</g>
	<g
   id="g96">
		<ellipse
   id="ellipse86"
   ry="6.2"
   rx="7.8"
   cy="247.5"
   cx="590.1"
   style="fill:#DF7977;" />
		<ellipse
   id="ellipse88"
   ry="5.8"
   rx="3.6"
   cy="231.6"
   cx="593"
   style="fill:#2C323A;" />
		<circle
   r="0.8"
   cy="215.1"
   cx="594.7"
   id="rightEye0_1_" />
		<circle
   r="0.8"
   cy="211.4"
   cx="599.9"
   id="rightEye1_1_" />
		<circle
   r="0.8"
   cy="217.4"
   cx="599.9"
   id="rightEye5_1_" />
		<circle
   r="0.8"
   cy="211.4"
   cx="606.2"
   id="rightEye2_1_" />
		<circle
   r="0.8"
   cy="215.6"
   cx="611.4"
   id="rightEye3_1_" />
		<circle
   r="0.8"
   cy="216.6"
   cx="606.2"
   id="rightEye4_1_" />
	</g>
	<g
   id="g108">
		<ellipse
   id="ellipse98"
   ry="5.8"
   rx="3.6"
   cy="231.6"
   cx="654.8"
   style="fill:#2C323A;" />
		<ellipse
   id="ellipse100"
   ry="6.2"
   rx="7.8"
   cy="247.5"
   cx="659.2"
   style="fill:#DF7977;" />
		<circle
   r="0.8"
   cy="215.1"
   cx="654.3"
   id="leftEye0_1_" />
		<circle
   r="0.8"
   cy="211.4"
   cx="649.1"
   id="leftEye1_1_" />
		<circle
   r="0.8"
   cy="217.4"
   cx="649.1"
   id="leftEye5_1_" />
		<circle
   r="0.8"
   cy="211.4"
   cx="642.8"
   id="leftEye2_1_" />
		<circle
   r="0.8"
   cy="215.6"
   cx="637.6"
   id="leftEye3_1_" />
		<circle
   r="0.8"
   cy="216.6"
   cx="642.8"
   id="leftEye4_1_" />
	</g>
	<g
   id="g120">
		<path
   d="M610.8,254.6c0.4,0,0.8,0.4,0.8,0.8s-0.4,0.8-0.8,0.8s-0.8-0.4-0.8-0.8S610.4,254.6,610.8,254.6z"
   id="rightMiddleLip_2_" />
		<circle
   r="0.8"
   cy="255.1"
   cx="624.5"
   id="upperLipBottomMid_1_" />
		<circle
   r="0.8"
   cy="254.6"
   cx="620.6"
   id="rightUpperLipBottom1_1_" />
		<path
   d="M638.2,254.6c0.4,0,0.8,0.4,0.8,0.8s-0.4,0.8-0.8,0.8s-0.8-0.4-0.8-0.8S637.8,254.6,638.2,254.6z"
   id="leftMiddleLip_2_" />
		<circle
   r="0.8"
   cy="254.6"
   cx="628.4"
   id="leftUpperLipBottom1_1_" />
		<path
   id="path115"
   d="M611.6,255.4c0,0,7.4-0.2,12.9-0.2    s13.9-0.1,13.9-0.1s-6.1,4-13.9,4C616.6,259.1,611.6,255.4,611.6,255.4z"
   style="fill:#2C323A;stroke:#2C323A;stroke-width:2;stroke-miterlimit:10;" />
		<circle
   r="0.8"
   cy="258.1"
   cx="624.5"
   id="lowerLipTopMid_2_" />
		<circle
   r="0.8"
   cy="257.4"
   cx="620.6"
   id="rightLowerLipTop0_2_" />
		<circle
   r="0.8"
   cy="257.4"
   cx="628.4"
   id="leftLowerLipTop0_2_" />
	</g>
	<g
   id="g134">
		<path
   id="path122"
   d="M636.7,182.2c-0.2,8.5-8.4,18.8-25.9,23.3c-2.1,0.5,9-8.2,13.7-18.5    c-19.7,23.6-29.8,27.3-63.8,25.6c5.1-22.7,26.3-53.3,63.3-53.7s57.1,21.6,65.1,56.3C667.2,210.1,649.5,212.2,636.7,182.2z"
   style="fill:#60504B;" />
		<circle
   r="0.8"
   cy="284.1"
   cx="625.5"
   id="jawMid_3_" />
		<circle
   r="0.8"
   cy="282.1"
   cx="614.6"
   id="rightJaw7_3_" />
		<circle
   r="0.8"
   cy="282.1"
   cx="636.4"
   id="leftJaw7_3_" />
		<circle
   r="0.8"
   cy="226.6"
   cx="580.3"
   id="rightJaw3_3_" />
		<circle
   r="0.8"
   cy="217.1"
   cx="580.3"
   id="rightJaw2_3_" />
		<circle
   r="0.8"
   cy="227"
   cx="668.5"
   id="leftJaw3_3_" />
		<circle
   r="0.8"
   cy="217.4"
   cx="668.5"
   id="leftJaw2_3_" />
		<circle
   r="0.8"
   cy="166"
   cx="624.7"
   id="topMid_1_" />
		<circle
   r="0.8"
   cy="168.5"
   cx="642.4"
   id="leftTop0_1_" />
		<circle
   r="0.8"
   cy="168.5"
   cx="606.8"
   id="rightTop0_1_" />
	</g>
	<path
   id="path136"
   d="M968.4,381.4l17-6.8c0,0,6.1,5.5,13,11.2s-4.7,18.4-15.3,10.6C972.4,388.6,968.4,381.4,968.4,381.4z   "
   style="fill:#F3AF9D;" />
	<path
   id="path138"
   d="M410.4,322.3l3,56.8c58.9,0.3,93.5-2.3,119.3,17.7l48.7-50.2C527.1,319.9,466.4,318.9,410.4,322.3z"
   style="fill:#E094A3;" />
	<path
   id="path140"
   d="M670.3,345.6l43.3,53.2c27-16.2,67.7-16.3,126.6-16.7v-56.8C784.2,321.9,741,314.9,670.3,345.6z"
   style="fill:#E094A3;" />
	<path
   id="path142"
   d="M415.6,328.9c-47.7,2.7-123.1,8.9-160.2,14.2c-37.1,5.3-40.1,40.1,5.3,39.5s95.2-3.5,159.7-12.1   L415.6,328.9z"
   style="fill:#F3AF9D;" />
	<path
   id="path144"
   d="M280.2,381.4l-17-6.8c0,0-6.1,5.5-13,11.2s4.7,18.4,15.3,10.6C276.2,388.6,280.2,381.4,280.2,381.4z   "
   style="fill:#F3AF9D;" />
	<path
   id="path146"
   d="M834.3,373.5c64.5,8.6,113.3,11.5,158.7,12.1s42.4-34.2,5.3-39.5c-37.1-5.3-114.5-11.5-162.2-14.2   L834.3,373.5z"
   style="fill:#F3AF9D;" />
	<g
   id="g159">
		<circle
   r="0.8"
   cy="216.1"
   cx="623.7"
   id="nose1_1_" />
		<circle
   r="0.8"
   cy="210.3"
   cx="623.7"
   id="nose0_1_" />
		<circle
   r="0.8"
   cy="228.7"
   cx="623.7"
   id="nose3_1_" />
		<circle
   r="0.8"
   cy="233.2"
   cx="613"
   id="rightNose0_1_" />
		<circle
   r="0.8"
   cy="233.2"
   cx="618.2"
   id="rightNose1_1_" />
		<circle
   r="0.8"
   cy="221.6"
   cx="623.7"
   id="nose2_1_" />
		<circle
   r="0.8"
   cy="234"
   cx="623.7"
   id="nose4_1_" />
		<circle
   r="0.8"
   cy="233.2"
   cx="634.1"
   id="leftNose0_1_" />
		<circle
   r="0.8"
   cy="233.2"
   cx="629.3"
   id="leftNose1_1_" />
		<path
   id="path157"
   d="M622.4,232.8c-1.2,0-4.6,1.6-5.8,5.2    c-0.2,1.2,0.6,5.8,6,4.1c-0.1-1-4.7-1.1-4.5-3.7C618.4,236.6,620.1,236.6,622.4,232.8z"
   style="fill:#2C323A;stroke:#2C323A;stroke-width:2;stroke-miterlimit:10;" />
	</g>
</g>

</svg>
