<?xml version="1.0" encoding="UTF-8" standalone="no"?>
<svg
   xmlns:dc="http://purl.org/dc/elements/1.1/"
   xmlns:cc="http://creativecommons.org/ns#"
   xmlns:rdf="http://www.w3.org/1999/02/22-rdf-syntax-ns#"
   xmlns:svg="http://www.w3.org/2000/svg"
   xmlns="http://www.w3.org/2000/svg"
   xmlns:sodipodi="http://sodipodi.sourceforge.net/DTD/sodipodi-0.dtd"
   xmlns:inkscape="http://www.inkscape.org/namespaces/inkscape"
   inkscape:version="1.0 (4035a4fb49, 2020-05-01)"
   sodipodi:docname="owl.svg"
   xml:space="preserve"
   style="enable-background:new 0 0 1200 1200;"
   viewBox="0 0 1200 1200"
   height="1200px"
   width="1200px"
   y="0px"
   x="0px"
   id="Layer_1"
   version="1.1"><metadata
   id="metadata275"><rdf:RDF><cc:Work
       rdf:about=""><dc:format>image/svg+xml</dc:format><dc:type
         rdf:resource="http://purl.org/dc/dcmitype/StillImage" /><dc:title></dc:title></cc:Work></rdf:RDF></metadata><defs
   id="defs273" /><sodipodi:namedview
   inkscape:current-layer="Layer_1"
   inkscape:window-maximized="1"
   inkscape:window-y="-9"
   inkscape:window-x="2391"
   inkscape:cy="600"
   inkscape:cx="600"
   inkscape:zoom="0.69166667"
   showgrid="false"
   id="namedview271"
   inkscape:window-height="1271"
   inkscape:window-width="2400"
   inkscape:pageshadow="2"
   inkscape:pageopacity="0"
   guidetolerance="10"
   gridtolerance="10"
   objecttolerance="10"
   borderopacity="1"
   bordercolor="#666666"
   pagecolor="#ffffff" />
<style
   id="style2"
   type="text/css">
	.st0{fill:#5A4328;}
	.st1{fill:#F3F1E3;}
	.st2{fill:#FAFEC2;}
	.st3{fill:#2AB084;}
	.st4{fill:#248061;}
	.st5{fill:#F3DB3F;}
	.st6{fill:#EEECDE;}
	.st7{fill:#A7770F;}
	.st8{fill:#7C7B67;}
	.st9{fill:#F0F8FB;}
	.st10{fill:#000004;}
	.st11{fill:#D16046;}
	.st12{fill:#FDEC47;}
	.st13{fill:#775934;}
	.st14{fill:#231F14;}
	.st15{fill:#DCDACE;}
	.st16{fill:none;stroke:#000000;stroke-miterlimit:10;}
</style>
<g
   transform="matrix(1.40087,0,0,2.3185854,-271.57446,-126.71605)"
   id="illustration_1_">
	<path
   id="path4"
   d="m 848.1,432 c 3.6,-13.5 -13.4,-26.7 -42.5,-30.6 29,-0.5 72.2,2.6 72.9,-14.1 0.7,-17.7 -22.2,-17.6 -50.4,-18.8 29.6,-5.4 50.8,-13.9 47.4,-26 -4.7,-17 -38.4,-6.9 -66.1,-1.2 -13.2,2.7 -25.3,1.1 -35.7,-0.7 -39.5,-6.9 -65.2,-35.3 -51.3,-52.5 11.7,-14.5 15.1,-36.4 15.1,-56 0,-46.6 -28.9,-84.4 -112,-84.4 -92.5,0 -112,37.8 -112,84.4 0,21.7 5.9,45.2 19.5,56.4 16.4,13.5 -14.5,45.1 -54.4,52.1 -10.4,1.8 -22.5,3.4 -35.7,0.7 -27.6,-5.7 -61.3,-15.8 -66.1,1.2 -3.4,12.1 17.8,20.6 47.4,26 -28.2,1.2 -51.1,1.1 -50.4,18.8 0.7,16.7 43.9,13.7 72.9,14.1 -29.1,3.9 -47.5,17.6 -42.5,30.6 8,20.8 38.4,23.2 73.6,8 43.3,-18.6 45.6,-22.3 45.6,-22.3 6.7,26.2 22.6,46.5 58.3,55.1 9.8,2.4 21,3.9 33.9,4.4 3.4,0.1 6.8,0.2 10.4,0.2 5.5,0 10.8,-0.2 15.8,-0.5 55.5,-3.7 78.4,-27.7 86.8,-60.8 0,0 6.5,3.5 50.5,24.8 39.8,19.1 64.2,8.9 69,-8.9 z"
   class="st0" />
	<path
   id="path6"
   d="m 714.9,399.3 c 1.7,-37.9 -21.1,-92.1 -88.7,-92.1 -69.4,0 -85.1,56.4 -84,90.8 1.3,40.8 53.3,69.4 84,69.7 30.7,0.3 87,-31.4 88.7,-68.4 z"
   class="st1" />
	<g
   id="g38">
		<ellipse
   id="ellipse8"
   ry="76.599998"
   rx="101.6"
   cy="232"
   cx="625.59998"
   class="st2" />
		<circle
   r="0.80000001"
   cy="290.70001"
   cx="624.5"
   id="jawMid_1_" />
		<circle
   r="0.80000001"
   cy="287.5"
   cx="609.5"
   id="rightJaw7_1_" />
		<circle
   r="0.80000001"
   cy="280.79999"
   cx="599.5"
   id="rightJaw6_1_" />
		<circle
   r="0.80000001"
   cy="268.29999"
   cx="587.90002"
   id="rightJaw5_1_" />
		<circle
   r="0.80000001"
   cy="248.3"
   cx="581.09998"
   id="rightJaw4_1_" />
		<circle
   r="0.80000001"
   cy="226.60001"
   cx="580.29999"
   id="rightJaw3_1_" />
		<circle
   r="0.80000001"
   cy="217.10001"
   cx="580.29999"
   id="rightJaw2_1_" />
		<circle
   r="0.80000001"
   cy="205.39999"
   cx="581.09998"
   id="rightJaw1_1_" />
		<circle
   r="0.80000001"
   cy="196.10001"
   cx="583.59998"
   id="rightJaw0_1_" />
		<circle
   r="0.80000001"
   cy="170"
   cx="624.70001"
   id="topMid_1_" />
		<circle
   r="0.80000001"
   cy="172.5"
   cx="644.40002"
   id="leftTop0_1_" />
		<circle
   r="0.80000001"
   cy="182"
   cx="657"
   id="leftTop1_1_" />
		<circle
   r="0.80000001"
   cy="287.89999"
   cx="639.29999"
   id="leftJaw7_1_" />
		<circle
   r="0.80000001"
   cy="281.20001"
   cx="649.29999"
   id="leftJaw6_1_" />
		<circle
   r="0.80000001"
   cy="268.60001"
   cx="660.90002"
   id="leftJaw5_1_" />
		<circle
   r="0.80000001"
   cy="248.60001"
   cx="667.70001"
   id="leftJaw4_1_" />
		<circle
   r="0.80000001"
   cy="227"
   cx="668.5"
   id="leftJaw3_1_" />
		<circle
   r="0.80000001"
   cy="217.39999"
   cx="668.5"
   id="leftJaw2_1_" />
		<circle
   r="0.80000001"
   cy="205.7"
   cx="667.70001"
   id="leftJaw1_1_" />
		<circle
   r="0.80000001"
   cy="196.5"
   cx="665.20001"
   id="leftJaw0_1_" />
		<circle
   r="0.80000001"
   cy="172.5"
   cx="604.79999"
   id="rightTop0_1_" />
		<circle
   r="0.80000001"
   cy="182"
   cx="592.20001"
   id="rightTop1_1_" />
		<path
   id="path32"
   d="m 659,309 c 3.3,-6.1 2.8,-8.1 2.9,-17.3 -15.8,-3.5 -21.9,5.2 -29.4,14.1 -0.8,-2.6 -2.8,-4.2 -7,-4.2 -4.5,0 -6.4,1.7 -7.1,4.2 -7.5,-8.9 -13.6,-17.6 -29.3,-14.1 0.1,9.2 -0.4,11.2 2.9,17.3 -3.1,6.1 -5.7,7.9 -2.9,16.1 8.4,2.8 16.9,2.4 29.9,-8.1 1.1,2.2 3.1,3.6 6.6,3.6 3.5,0 5.5,-1.4 6.5,-3.5 13,10.5 21.5,10.9 29.9,8.1 2.7,-8.3 0.1,-10 -3,-16.2 z"
   class="st3" />
		<path
   id="path34"
   d="m 652.6,308.8 c -0.3,-4.9 -10,-3.2 -17.3,-0.8 -0.2,-1.9 -0.7,-3.2 -1.8,-3.2 -1.8,0 -1.9,2.9 -1.9,6.4 0,3.5 0.4,6.4 1.9,6.4 1.4,0 1.9,-2.5 1.9,-5.8 9.7,3.1 17.5,2 17.2,-3 z"
   class="st4" />
		<path
   id="path36"
   d="m 617.8,304.8 c -1.1,0 -1.6,1.3 -1.8,3.2 -7.3,-2.4 -17,-4.1 -17.3,0.8 -0.3,5 7.5,6.1 17.2,3 0,3.2 0.5,5.8 1.9,5.8 1.5,0 1.9,-2.9 1.9,-6.4 0,-3.6 -0.1,-6.4 -1.9,-6.4 z"
   class="st4" />
	</g>
	<path
   id="path40"
   d="m 619.9,520.6 c -2.2,-4.8 -7.3,-12.8 -9.1,-15.6 0,0 0,0 0,0 -5.8,-14.9 -2.8,-10.3 2.2,-27.9 -14.7,-1.3 -28.6,-3.7 -28.6,-3.7 4.1,15.5 7.6,11.5 2.4,27.4 -16.6,-1.5 -36.9,-0.2 -44.5,13.5 3.7,1.1 7.3,2.1 10.9,2.8 -6,4 -10.5,8.8 -12.2,14.2 10.6,1 22.7,-0.9 34.2,-3.6 -0.9,2.2 -1.6,4.5 -2,7 21.4,-0.9 30.9,-7.7 46.7,-14.1 z"
   class="st5" />
	<path
   id="path42"
   d="M 542.3,514.3"
   class="st5" />
	<path
   id="path44"
   d="m 559.5,518.4 c -5.5,-0.9 -11.3,-2.3 -17.2,-4.1 3.4,-6.2 9.3,-9.8 16.4,-11.8 2.7,6.9 0.8,15.9 0.8,15.9 z"
   class="st6" />
	<path
   id="path46"
   d="m 564.5,530 c -6.9,1 -17.2,2 -23.6,1.4 2.1,-6.6 8.5,-12.3 16.6,-16.9 8.9,2.2 7,15.5 7,15.5 z"
   class="st6" />
	<path
   id="path48"
   d="m 589.3,532.6 c -4.7,1.1 -9.9,1.9 -16.2,2.2 1.3,-7.9 3.5,-20.1 10.5,-18.9 5.1,8.7 5.7,16.7 5.7,16.7 z"
   class="st6" />
	<path
   id="path50"
   d="m 587.1,481.6 c 4.7,1.8 16.8,4.9 23.5,2.9 l -1.9,4.9 c 0,0 -12.1,0.6 -20,-3.8 z"
   class="st7" />
	<path
   id="path52"
   d="m 589.3,492.4 c 5.5,3.7 10.7,5 18.1,4.7 l 1.3,2.6 c 0,0 -12.1,0.6 -20,-3.8 z"
   class="st7" />
	<path
   id="path54"
   d="m 586.7,500.4 c 7,6.6 17.8,6.3 25.2,6 l 1.3,3.6 c 0,0 -21.5,-1 -27.1,-6.1 z"
   class="st7" />
	<path
   id="path56"
   d="m 637.3,519.6 c 2.2,-4.8 7.3,-12.8 9.1,-15.6 0,0 0,0 0,0 5.8,-14.9 2.8,-10.3 -2.2,-27.9 14.7,-1.3 28.6,-3.7 28.6,-3.7 -4.1,15.5 -7.6,11.5 -2.4,27.4 16.6,-1.5 36.9,-0.2 44.5,13.5 -3.7,1.1 -7.3,2.1 -10.9,2.8 6,4 10.5,8.8 12.2,14.2 -10.6,1 -22.7,-0.9 -34.2,-3.6 0.9,2.2 1.6,4.5 2,7 -21.4,-0.9 -30.9,-7.7 -46.7,-14.1 z"
   class="st5" />
	<path
   id="path58"
   d="M 714.9,513.3"
   class="st5" />
	<path
   id="path60"
   d="m 697.7,517.4 c 5.5,-0.9 11.3,-2.3 17.2,-4.1 -3.4,-6.2 -9.3,-9.8 -16.4,-11.8 -2.7,6.9 -0.8,15.9 -0.8,15.9 z"
   class="st6" />
	<path
   id="path62"
   d="m 692.7,529 c 6.9,1 17.2,2 23.6,1.4 -2.1,-6.6 -8.5,-12.3 -16.6,-16.9 -8.9,2.2 -7,15.5 -7,15.5 z"
   class="st6" />
	<path
   id="path64"
   d="m 667.9,531.6 c 4.7,1.1 9.9,1.9 16.2,2.2 -1.3,-7.9 -3.5,-20.1 -10.5,-18.9 -5.1,8.7 -5.7,16.7 -5.7,16.7 z"
   class="st6" />
	<path
   id="path66"
   d="m 670.1,480.6 c -4.7,1.8 -16.8,4.9 -23.5,2.9 l 1.9,4.9 c 0,0 12.1,0.6 20,-3.8 z"
   class="st7" />
	<path
   id="path68"
   d="m 667.9,491.4 c -5.5,3.7 -10.7,5 -18.1,4.7 l -1.3,2.6 c 0,0 12.1,0.6 20,-3.8 z"
   class="st7" />
	<path
   id="path70"
   d="m 670.5,499.4 c -7,6.6 -17.8,6.3 -25.2,6 L 644,509 c 0,0 21.5,-1 27.1,-6.1 z"
   class="st7" />
	<g
   id="g86">
		<circle
   id="circle72"
   r="37.799999"
   cy="220.60001"
   cx="565"
   class="st8" />
		<circle
   id="circle74"
   r="32.299999"
   cy="220.60001"
   cx="565"
   class="st9" />
		<ellipse
   id="ellipse76"
   ry="13"
   rx="9.8000002"
   cy="209.5"
   cx="558.40002"
   class="st10" />
		<circle
   id="circle78"
   r="24.799999"
   cy="266.20001"
   cx="544.40002"
   class="st11" />
		<circle
   r="0.80000001"
   cy="215.10001"
   cx="594.70001"
   id="rightEye0_1_" />
		<circle
   r="0.80000001"
   cy="211.39999"
   cx="599.90002"
   id="rightEye1_1_" />
		<circle
   r="0.80000001"
   cy="217.39999"
   cx="599.90002"
   id="rightEye5_1_" />
		<circle
   r="0.80000001"
   cy="211.39999"
   cx="606.20001"
   id="rightEye2_1_" />
		<circle
   r="0.80000001"
   cy="215.60001"
   cx="611.40002"
   id="rightEye3_1_" />
		<circle
   r="0.80000001"
   cy="216.60001"
   cx="606.20001"
   id="rightEye4_1_" />
	</g>
	<g
   id="g102">
		<circle
   id="circle88"
   r="37.799999"
   cy="220.60001"
   cx="685.5"
   class="st8" />
		<circle
   id="circle90"
   r="32.299999"
   cy="220.60001"
   cx="685.5"
   class="st9" />
		<ellipse
   id="ellipse92"
   ry="13"
   rx="10.1"
   cy="209.5"
   cx="692.09998"
   class="st10" />
		<circle
   id="circle94"
   r="24.799999"
   cy="266.20001"
   cx="706.90002"
   class="st11" />
		<circle
   r="0.80000001"
   cy="215.10001"
   cx="654.29999"
   id="leftEye0_1_" />
		<circle
   r="0.80000001"
   cy="211.39999"
   cx="649.09998"
   id="leftEye1_1_" />
		<circle
   r="0.80000001"
   cy="217.39999"
   cx="649.09998"
   id="leftEye5_1_" />
		<circle
   r="0.80000001"
   cy="211.39999"
   cx="642.79999"
   id="leftEye2_1_" />
		<circle
   r="0.80000001"
   cy="215.60001"
   cx="637.59998"
   id="leftEye3_1_" />
		<circle
   r="0.80000001"
   cy="216.60001"
   cx="642.79999"
   id="leftEye4_1_" />
	</g>
	<g
   id="g123">
		<path
   id="path104"
   d="m 511.8,96.1 c -12.2,16.2 -14.5,25.9 -12.5,42.6 3.6,31.3 99.5,30.5 102.9,97.4 11.7,-9.8 38.1,-9.5 49.9,0 1.4,-65.4 94.5,-66.2 98.1,-97.4 1.9,-16.6 -0.3,-26.4 -12.5,-42.6 -4.4,27.1 -60.8,51.6 -112,51.6 -51.2,0 -108.5,-29.1 -113.9,-51.6 z"
   class="st0" />
		<circle
   r="0.80000001"
   cy="196.10001"
   cx="583.59998"
   id="rightJaw0_2_" />
		<circle
   r="0.80000001"
   cy="170"
   cx="624.70001"
   id="topMid_2_" />
		<circle
   r="0.80000001"
   cy="172.5"
   cx="644.40002"
   id="leftTop0_2_" />
		<circle
   r="0.80000001"
   cy="182"
   cx="657"
   id="leftTop1_2_" />
		<circle
   r="0.80000001"
   cy="196.5"
   cx="665.20001"
   id="leftJaw0_2_" />
		<circle
   r="0.80000001"
   cy="172.5"
   cx="604.79999"
   id="rightTop0_2_" />
		<circle
   r="0.80000001"
   cy="182"
   cx="592.20001"
   id="rightTop1_2_" />
		<circle
   r="0.80000001"
   cy="203.2"
   cx="592.5"
   id="rightBrow1_1_" />
		<circle
   r="0.80000001"
   cy="206.2"
   cx="615.79999"
   id="rightBrow4_1_" />
		<circle
   r="0.80000001"
   cy="202.2"
   cx="606"
   id="rightBrow3_1_" />
		<circle
   r="0.80000001"
   cy="206.89999"
   cx="588.5"
   id="rightBrow0_1_" />
		<circle
   r="0.80000001"
   cy="202.2"
   cx="598.70001"
   id="rightBrow2_1_" />
		<circle
   r="0.80000001"
   cy="203.60001"
   cx="656.20001"
   id="leftBrow1_1_" />
		<circle
   r="0.80000001"
   cy="205.7"
   cx="632.59998"
   id="leftBrow4_1_" />
		<circle
   r="0.80000001"
   cy="202.5"
   cx="642.59998"
   id="leftBrow3_1_" />
		<circle
   r="0.80000001"
   cy="206.5"
   cx="660.20001"
   id="leftBrow0_1_" />
		<circle
   r="0.80000001"
   cy="202.10001"
   cx="649.90002"
   id="leftBrow2_1_" />
	</g>
	<g
   id="g139">
		<path
   id="path125"
   d="m 660.5,250.1 c 1.6,-15 -11.7,-39.3 -35.4,-39.3 -24.6,0 -34.7,27.4 -32.7,39.3 4.4,26.6 19.8,36.7 36,36.7 16.5,0 29.3,-10.7 32.1,-36.7 z"
   class="st12" />
		<path
   id="path127"
   d="m 594.3,251 c 6,-1.1 19.8,-0.9 33.2,-0.9 11.5,0 23.2,0.2 31.7,1.6 -7.8,2.9 -18,7.9 -31,7.8 -14.8,-0.1 -29.1,-6.5 -33.9,-8.5 z"
   class="st13" />
		<circle
   r="0.80000001"
   cy="251.89999"
   cx="596.29999"
   id="rightMouthCorner_1_" />
		<path
   d="m 606.2,253.3 c 0.4,0 0.8,0.4 0.8,0.8 0,0.4 -0.4,0.8 -0.8,0.8 -0.4,0 -0.8,-0.4 -0.8,-0.8 0,-0.4 0.4,-0.8 0.8,-0.8 z"
   id="rightMiddleLip_1_" />
		<circle
   r="0.80000001"
   cy="251.3"
   cx="628.29999"
   id="upperLipBottomMid_1_" />
		<circle
   r="0.80000001"
   cy="259.5"
   cx="628.09998"
   id="lowerLipTopMid_1_" />
		<circle
   r="0.80000001"
   cy="251.8"
   cx="613.20001"
   id="rightUpperLipBottom1_1_" />
		<circle
   r="0.80000001"
   cy="256.20001"
   cx="616.59998"
   id="rightLowerLipTop0_1_" />
		<circle
   r="0.80000001"
   cy="252.3"
   cx="657.40002"
   id="leftMouthCorner_1_" />
		<path
   d="m 649.1,253.8 c 0.4,0 0.8,0.4 0.8,0.8 0,0.4 -0.4,0.8 -0.8,0.8 -0.4,0 -0.8,-0.4 -0.8,-0.8 0,-0.4 0.4,-0.8 0.8,-0.8 z"
   id="leftMiddleLip_1_" />
		<circle
   r="0.80000001"
   cy="251.5"
   cx="642.79999"
   id="leftUpperLipBottom1_1_" />
		<circle
   r="0.80000001"
   cy="256.20001"
   cx="639.29999"
   id="leftLowerLipTop0_1_" />
	</g>
	<path
   id="path141"
   d="m 921.6,447.8 c -4,24.3 -40.4,19.7 -81.2,11.8 -72.8,-14.1 -75.5,-37.8 -72.7,-51.1 2.5,-11.6 36.5,-8.4 70.3,-3.4 -19.2,-5 -31.7,-12.7 -31.3,-20.9 0.2,-5 5.3,-9.5 13.6,-13 -7.6,-1.5 -12.5,-4.5 -13.8,-8.8 -3.6,-12.4 24.3,-31.5 62.4,-42.5 38.1,-11 68.6,-21.4 75.5,2.5 6.3,21.9 -22.6,30.9 -59.2,41.6 36.9,1.5 65.9,2.6 64.9,26.2 -1,23.5 -33.1,23.2 -72.7,20.5 37.4,12.6 46.7,22.5 44.2,37.1 z"
   class="st14" />
	<path
   id="path143"
   d="m 757.6,410.2 c 2.2,-10.2 22.6,-14.8 48.7,-12.1 -10.4,-4 -16.7,-9.2 -16.5,-14.6 0.2,-3.7 3.4,-7 8.8,-9.8 -4.5,-1.4 -7.4,-3.7 -8.3,-6.6 -3.1,-10.6 20.7,-26.8 53.2,-36.2 32.4,-9.4 58.4,-18.2 64.3,2.1 5,17.3 -15.9,25.2 -43.9,33.5 27.9,1.2 48.9,3.5 48.1,22 -0.8,20 -28.2,18.9 -61.9,17.5 -1.1,0 -2.2,-0.1 -3.2,-0.2 23.8,5.7 40.1,12.7 36,31.4 -4.9,22.6 -35.6,21.1 -70.2,13.6 -34.6,-7.4 -57.8,-28.1 -55.1,-40.6 z"
   class="st15" />
	<path
   id="path145"
   d="m 848.1,432 c 3.6,-13.5 -13.4,-26.7 -42.5,-30.6 29,-0.5 72.2,2.6 72.9,-14.1 0.7,-17.7 -22.2,-17.6 -50.4,-18.8 29.6,-5.4 50.8,-13.9 47.4,-26 -4.7,-17 -38.4,-6.9 -66.1,-1.2 -27.1,5.6 -53.4,1.8 -70,29.7 -2.9,4.9 -5,10.3 -5.3,15.9 -0.3,7.4 2.9,14.6 6.9,20.9 13.6,21 44.3,40.2 69.3,43.1 15,1.4 33.4,-2.5 37.8,-18.9 z"
   class="st0" />
	<path
   id="path147"
   d="m 330.9,447.8 c 4,24.3 40.4,19.7 81.2,11.8 72.8,-14.1 75.5,-37.8 72.7,-51.1 -2.5,-11.6 -36.5,-8.4 -70.3,-3.4 19.2,-5 31.7,-12.7 31.3,-20.9 -0.2,-5 -5.3,-9.5 -13.6,-13 7.6,-1.5 12.5,-4.5 13.8,-8.8 3.6,-12.4 -24.3,-31.5 -62.4,-42.5 -38.1,-11 -68.6,-21.4 -75.5,2.5 -6.3,21.9 22.6,30.9 59.2,41.6 -36.9,1.5 -65.9,2.6 -64.9,26.2 1,23.5 33.1,23.2 72.7,20.5 -37.4,12.6 -46.7,22.5 -44.2,37.1 z"
   class="st14" />
	<path
   id="path149"
   d="m 494.9,410.2 c -2.2,-10.2 -22.6,-14.8 -48.7,-12.1 10.4,-4 16.7,-9.2 16.5,-14.6 -0.2,-3.7 -3.4,-7 -8.8,-9.8 4.5,-1.4 7.4,-3.7 8.3,-6.6 3.1,-10.6 -20.7,-26.8 -53.2,-36.2 -32.4,-9.4 -58.4,-18.2 -64.3,2.1 -5,17.3 15.9,25.2 43.9,33.5 -27.9,1.2 -48.9,3.5 -48.1,22 0.8,20 28.2,18.9 61.9,17.5 1.1,0 2.2,-0.1 3.2,-0.2 -23.8,5.7 -40.1,12.7 -36,31.4 4.9,22.6 35.6,21.1 70.2,13.6 34.6,-7.4 57.8,-28.1 55.1,-40.6 z"
   class="st15" />
	<path
   id="path151"
   d="m 519.9,374.2 c -3.3,-10.1 -11.2,-19.1 -20.6,-24.4 -22.2,-12.7 -51.7,-7.9 -76.1,-12.9 -11,-2.3 -41.6,-11.2 -46.3,5.5 -3.4,12.1 17.8,20.6 47.4,26 -28.2,1.2 -51.1,1.1 -50.4,18.8 0.7,16.7 43.9,13.7 72.9,14.1 -29.1,3.9 -47.5,17.6 -42.5,30.6 9.2,18.5 29.9,19.7 48.3,16.1 28.9,-5.1 49.7,-16.4 63.1,-43.5 2.5,-5.1 4.8,-10.4 5.6,-16.1 0.7,-4.8 0.1,-9.6 -1.4,-14.2 z"
   class="st0" />
</g>

</svg>
