<?xml version="1.0" encoding="UTF-8" standalone="no"?>
<svg
   xmlns:dc="http://purl.org/dc/elements/1.1/"
   xmlns:cc="http://creativecommons.org/ns#"
   xmlns:rdf="http://www.w3.org/1999/02/22-rdf-syntax-ns#"
   xmlns:svg="http://www.w3.org/2000/svg"
   xmlns="http://www.w3.org/2000/svg"
   xmlns:sodipodi="http://sodipodi.sourceforge.net/DTD/sodipodi-0.dtd"
   xmlns:inkscape="http://www.inkscape.org/namespaces/inkscape"
   inkscape:version="1.0 (4035a4fb49, 2020-05-01)"
   sodipodi:docname="raccoon.svg"
   xml:space="preserve"
   style="enable-background:new 0 0 1200 1200;"
   viewBox="0 0 1200 1200"
   height="1200px"
   width="1200px"
   y="0px"
   x="0px"
   id="Layer_1"
   version="1.1"><metadata
   id="metadata202"><rdf:RDF><cc:Work
       rdf:about=""><dc:format>image/svg+xml</dc:format><dc:type
         rdf:resource="http://purl.org/dc/dcmitype/StillImage" /><dc:title></dc:title></cc:Work></rdf:RDF></metadata><defs
   id="defs200" /><sodipodi:namedview
   inkscape:current-layer="Layer_1"
   inkscape:window-maximized="1"
   inkscape:window-y="-9"
   inkscape:window-x="-9"
   inkscape:cy="484.33735"
   inkscape:cx="600"
   inkscape:zoom="0.69166667"
   showgrid="false"
   id="namedview198"
   inkscape:window-height="1001"
   inkscape:window-width="1920"
   inkscape:pageshadow="2"
   inkscape:pageopacity="0"
   guidetolerance="10"
   gridtolerance="10"
   objecttolerance="10"
   borderopacity="1"
   bordercolor="#666666"
   pagecolor="#ffffff" />
<style
   id="style2"
   type="text/css">
	.st0{fill:#4B1F09;}
	.st1{fill:#ECF4E9;}
	.st2{fill:#60625D;}
	.st3{fill:#458761;}
	.st4{fill:#9E2323;}
	.st5{fill:#AB7440;}
	.st6{fill:#7E4B1D;}
	.st7{fill:#D68184;}
	.st8{fill:#D69655;}
	.st9{fill:#FAFCF9;}
	.st10{fill:#4966B1;}
	.st11{fill:#D8975B;}
	.st12{fill:#326842;}
	.st13{fill:#E5CA5A;}
	.st14{fill:none;stroke:#000000;stroke-miterlimit:10;}
</style>
<g
   transform="matrix(1.6344753,0,0,2.4480369,-417.58072,-275.17636)"
   id="illustration_1_">
	<circle
   id="circle4"
   r="20"
   cy="344.39999"
   cx="838"
   class="st0" />
	<path
   id="path6"
   d="m 632.4,323.9 c -14.4,-22.8 114,-19.4 201.7,-0.9 -2.1,10.6 -5.8,26.5 -6.4,40.1 -65.5,0.9 -180.4,-15.7 -195.3,-39.2 z"
   class="st1" />
	<circle
   id="circle8"
   r="20"
   cy="344.39999"
   cx="416.10001"
   class="st0" />
	<path
   id="path10"
   d="m 621.8,320.9 c 14.5,-22.8 -114.6,-16.5 -202.4,2 2.1,10.6 5.8,26.5 6.4,40.1 65.6,1 181.1,-18.5 196,-42.1 z"
   class="st1" />
	<path
   id="path12"
   d="m 694.9,563.1 c 2.3,8.7 -3.5,13.5 -7.9,15 -7.5,2.6 -14.9,0.7 -17.2,-8 -2.3,-8.7 1.8,-13.8 9.4,-15.9 7.7,-2 13.4,0.2 15.7,8.9 z"
   class="st0" />
	<path
   id="path14"
   d="m 558.6,563.1 c -2.3,8.7 3.5,13.5 7.9,15 7.5,2.6 14.9,0.7 17.2,-8 2.3,-8.7 -1.8,-13.8 -9.4,-15.9 -7.7,-2 -13.4,0.2 -15.7,8.9 z"
   class="st0" />
	<path
   id="path16"
   d="m 681.7,502.9 c 13.1,-11.7 21.1,-27.7 21.1,-45.2 0,-6.2 3.1,-17.1 -2.8,-17.8 -27,-3.1 -40.6,-5.3 -75.4,-5.3 -35.4,0 -30.1,1.3 -71.5,6.6 -5.5,0.7 -2.4,10.8 -2.4,16.5 0,17.6 8.1,33.5 21.2,45.3 -2.4,5.3 -4.5,11.4 -6.1,18.1 -3.2,13 -3.9,25.2 -2.4,33.6 1.1,6.3 4.6,7.1 8.1,8 3.1,0.8 7.4,-0.2 10.9,-4.2 5.7,-6.5 9.4,-16 12.9,-30.1 0.9,-3.5 1.5,-7 2.1,-10.3 9,3.3 19,5.1 29.4,5.1 10.5,0 20.5,-1.8 29.5,-5.1 0.5,3.3 1.2,6.8 2.1,10.4 3.5,14.1 7.2,23.6 12.9,30.1 3.5,4 7.8,5 10.9,4.2 3.5,-0.9 7,-1.7 8.1,-8 1.5,-8.4 0.8,-20.5 -2.4,-33.6 -1.7,-6.8 -3.8,-13 -6.2,-18.3 z"
   class="st2" />
	<path
   id="path18"
   d="M 625.3,312.1"
   class="st3" />
	<path
   id="path20"
   d="m 599,316.1 c 6.7,-3.2 15.1,-5.5 23.4,-5.9 2.6,-0.1 5.2,-0.1 7.7,0 9.7,0.5 18.6,2.7 24.2,6.3 -11.5,20.6 -41,20.3 -55.3,-0.4 z"
   class="st1" />
	<path
   id="path22"
   d="m 622.9,310.2 c 0,0 -24.2,114.6 -22.9,158.8 6.9,4.2 45.1,3.8 52.7,0.3 6.7,-43.2 -20,-153.1 -23.4,-159.1 z"
   class="st4" />
	<path
   id="path24"
   d="m 542.2,176.3 c 3.3,10.4 14.9,10.5 27.8,6.4 12.9,-4.1 22.2,-10.9 18.9,-21.3 -3.3,-10.4 -16.5,-15.5 -29.4,-11.4 -12.9,4.1 -20.7,15.9 -17.3,26.3 z"
   class="st5" />
	<path
   id="path26"
   d="m 545.1,165.1 c 1.7,5.3 9.9,4.6 19.3,1.6 9.4,-3 16.5,-7.2 14.8,-12.4 -1.7,-5.3 -10.7,-7.1 -20.1,-4.1 -9.4,2.9 -15.7,9.6 -14,14.9 z"
   class="st6" />
	<path
   id="path28"
   d="m 549.4,173.7 c 2.2,7 9.8,6.5 18.5,3.7 8.7,-2.8 15.2,-6.7 13,-13.7 -2.2,-7 -11.1,-10.5 -19.8,-7.7 -8.8,2.7 -14,10.6 -11.7,17.7 z"
   class="st7" />
	<path
   id="path30"
   d="m 704.4,176.3 c -3.3,10.4 -14.9,10.5 -27.8,6.4 -12.9,-4.1 -22.2,-10.9 -18.9,-21.3 3.3,-10.4 16.5,-15.5 29.4,-11.4 12.9,4.1 20.6,15.9 17.3,26.3 z"
   class="st5" />
	<path
   id="path32"
   d="m 719.1,257.9 c 0,39.5 -42.6,54.2 -95.2,54.2 -52.6,0 -95.2,-14.7 -95.2,-54.2 0,-39.5 15.8,-88.9 95.2,-88.9 81.1,0.1 95.2,49.4 95.2,88.9 z"
   class="st8" />
	<path
   id="path34"
   d="m 622.8,254.3 c -46.3,29.2 -26.3,45.1 0.8,45.1 27.7,0 48.8,-19.5 -0.8,-45.1 z"
   class="st5" />
	<path
   id="path36"
   d="m 623.1,254.9 c -35.4,22.3 -20.2,39.1 0.5,39.1 21.2,0 37.4,-19.5 -0.5,-39.1 z"
   class="st6" />
	<path
   id="path38"
   d="m 623.3,256.2 c -24.9,15.7 -14.2,32 0.4,32 14.9,-0.1 26.3,-18.2 -0.4,-32 z"
   class="st0" />
	<path
   id="path40"
   d="m 708.9,246 c 0,19.3 -6.6,28.1 -25,28.1 -31,0 -28.1,-29.4 -59.9,-29.4 -31.7,0 -28.9,29.4 -59.9,29.4 -17.2,0 -25,-8.8 -25,-28.1 0,-33.2 22.3,-67.8 84.4,-67.8 62.1,0 85.4,29.1 85.4,67.8 z"
   class="st0" />
	<g
   id="g54">
		<ellipse
   id="ellipse42"
   ry="21.700001"
   rx="17.799999"
   cy="233.5"
   cx="679.09998"
   class="st9" />
		<ellipse
   id="ellipse44"
   ry="13.8"
   rx="11.4"
   cy="233.5"
   cx="679.09998"
   class="st10" />
		<path
   id="path46"
   d="m 665.4,219.6 c 3.3,-4.8 8.2,-7.9 13.7,-7.9 9.8,0 17.8,9.7 17.8,21.7 0,2.5 -0.3,4.9 -1,7.1 z"
   class="st11" />
		<circle
   r="0.80000001"
   cy="215.10001"
   cx="654.29999"
   id="leftEye0_1_" />
		<circle
   r="0.80000001"
   cy="211.39999"
   cx="649.09998"
   id="leftEye1_1_" />
		<circle
   r="0.80000001"
   cy="217.39999"
   cx="649.09998"
   id="leftEye5_1_" />
		<circle
   r="0.80000001"
   cy="211.39999"
   cx="642.79999"
   id="leftEye2_1_" />
		<circle
   r="0.80000001"
   cy="215.60001"
   cx="637.59998"
   id="leftEye3_1_" />
		<circle
   r="0.80000001"
   cy="216.60001"
   cx="642.79999"
   id="leftEye4_1_" />
	</g>
	<g
   id="g68">
		<ellipse
   id="ellipse56"
   ry="21.700001"
   rx="17.799999"
   cy="233.5"
   cx="571.70001"
   class="st9" />
		<ellipse
   id="ellipse58"
   ry="13.8"
   rx="11.4"
   cy="233.5"
   cx="571.70001"
   class="st10" />
		<path
   id="path60"
   d="m 585.4,219.6 c -3.3,-4.8 -8.2,-7.9 -13.7,-7.9 -9.8,0 -17.8,9.7 -17.8,21.7 0,2.5 0.3,4.9 1,7.1 z"
   class="st11" />
		<circle
   r="0.80000001"
   cy="215.10001"
   cx="594.70001"
   id="rightEye0_1_" />
		<circle
   r="0.80000001"
   cy="211.39999"
   cx="599.90002"
   id="rightEye1_1_" />
		<circle
   r="0.80000001"
   cy="217.39999"
   cx="599.90002"
   id="rightEye5_1_" />
		<circle
   r="0.80000001"
   cy="211.39999"
   cx="606.20001"
   id="rightEye2_1_" />
		<circle
   r="0.80000001"
   cy="215.60001"
   cx="611.40002"
   id="rightEye3_1_" />
		<circle
   r="0.80000001"
   cy="216.60001"
   cx="606.20001"
   id="rightEye4_1_" />
	</g>
	<path
   id="path70"
   d="m 701.5,165.1 c -1.7,5.3 -9.9,4.6 -19.3,1.6 -9.4,-3 -16.5,-7.2 -14.8,-12.4 1.7,-5.3 10.7,-7.1 20.1,-4.1 9.4,2.9 15.6,9.6 14,14.9 z"
   class="st6" />
	<path
   id="path72"
   d="m 697.2,173.7 c -2.2,7 -9.8,6.5 -18.5,3.7 -8.7,-2.8 -15.2,-6.7 -13,-13.7 2.2,-7 11.1,-10.5 19.8,-7.7 8.7,2.7 14,10.6 11.7,17.7 z"
   class="st7" />
	<path
   id="path74"
   d="m 664.4,320.7 c -3.1,-1.6 -6.3,-3 -9.6,-4.1 -0.1,0 -0.3,-0.1 -0.4,-0.1 0,0 0,0.1 -0.1,0.1 -11.5,20.6 -41,20.2 -55.3,-0.5 -2.8,1 -5.4,2.1 -7.9,3.4 -47.1,23.9 -49,100.6 -46.2,139.2 39.4,19.8 123.3,16 161.1,2.5 5.6,-57.8 0.7,-118.2 -41.6,-140.5 z"
   class="st3" />
	<path
   id="path76"
   d="m 591.4,319.3 c 7.7,33.2 63,35.1 73,1.4 l -10.1,-4.1 c -12.6,19 -41.5,19.1 -55.3,-0.5 z"
   class="st12" />
	<path
   id="path78"
   d="m 594.4,318.3 c 12.6,29.5 51.8,30.4 66,0.4 l -3.1,-1.1 c -13.1,25.1 -47.5,23.6 -60.8,-0.7 z"
   class="st13" />
</g>

</svg>
