<?xml version="1.0" encoding="utf-8"?>
<!-- Generator: Adobe Illustrator 24.1.2, SVG Export Plug-In . SVG Version: 6.00 Build 0)  -->
<svg version="1.1" id="Layer_1" xmlns="http://www.w3.org/2000/svg" xmlns:xlink="http://www.w3.org/1999/xlink" x="0px"
	 y="0px" viewBox="0 0 1000 1000" style="enable-background:new 0 0 1000 1000;" xml:space="preserve">
<style type="text/css">
	.st0{fill:#60504B;}
	.st1{fill:#FFFFFF;}
	.st2{fill:#3D527F;}
	.st3{fill:#F3AF9D;}
	.st4{fill:#404040;}
	.st5{fill:#808080;}
	.st6{fill:#DD9B8E;}
	.st7{fill:#DF7977;}
	.st8{fill:#2C323A;}
	.st9{fill:none;stroke:#FFB300;stroke-miterlimit:10;}
	.st10{fill:none;stroke:#FFB300;stroke-width:1;stroke-miterlimit:10;}
	.st11{fill:none;stroke:#2C323A;stroke-width:0.5;stroke-miterlimit:10;}
	.st12{display:none;}
	.st13{display:inline;}
	.st14{display:inline;fill:none;stroke:#000000;stroke-miterlimit:10;}
</style>
<g id="illustration_1_">
	<path class="st0" d="M523.3,868v46.8c0,48.8,55.4,50.3,55.4,4.5v-51.8L523.3,868z"/>
	<rect x="535.7" y="889.3" class="st1" width="30.6" height="4.4"/>
	<rect x="535.7" y="897.7" class="st1" width="30.6" height="4.4"/>
	<rect x="535.7" y="906.2" class="st1" width="30.6" height="4.4"/>
	<path class="st0" d="M420,868v46.8c0,48.8,55.4,50.3,55.4,4.5v-51.8L420,868z"/>
	<path class="st2" d="M394.4,493.8c0,66.4,0,148.9,0,228.2c0,55.8,0,110,0,155.8c56.6,0,58.8,0,99.7,0c0-46.8,0-101.4,0-154.5
		c0-75.9,0-148.8,0-191.6c5.9,0,14.5,0,19.9,0c0,41.3,0,115.8,0,191.6c0,54.9,0,110.4,0,154.5c45,0,34.6,0,91.7,0
		c0-43,0-97.5,0-154.5c0-79.5,0-164,0-229.5L394.4,493.8L394.4,493.8z"/>
	<rect x="432.4" y="889.3" class="st1" width="30.6" height="4.4"/>
	<rect x="432.4" y="897.7" class="st1" width="30.6" height="4.4"/>
	<rect x="432.4" y="906.2" class="st1" width="30.6" height="4.4"/>
	<path class="st3" d="M843.8,326.2l17-6.8c0,0,6.1,5.5,13,11.2s-4.7,18.4-15.3,10.6C847.8,333.4,843.8,326.2,843.8,326.2z"/>
	<path class="st3" d="M291,273.7c-47.7,2.7-123.1,8.9-160.2,14.2c-37.1,5.3-40.1,40.1,5.3,39.5s95.2-3.5,159.7-12.1L291,273.7z"/>
	<path class="st3" d="M155.6,326.2l-17-6.8c0,0-6.1,5.5-13,11.2c-6.9,5.7,4.7,18.4,15.3,10.6C151.6,333.4,155.6,326.2,155.6,326.2z"
		/>
	<path class="st3" d="M709.7,318.3c64.5,8.6,113.3,11.5,158.7,12.1s42.4-34.2,5.3-39.5c-37.1-5.3-114.5-11.5-162.2-14.2L709.7,318.3
		z"/>
	<path class="st4" d="M545.7,290.4l43.3,53.2c27-16.2,67.7-16.3,126.6-16.7v-56.8C659.6,266.7,616.4,259.7,545.7,290.4z"/>
	<path class="st4" d="M285.8,267.1l3,56.8c58.9,0.3,93.5-2.3,119.3,17.7l48.7-50.2C402.5,264.7,341.8,263.7,285.8,267.1z"/>
	<path class="st5" d="M376.9,509c0-47.3,6-116.9,31.1-167.4c8.4-16.8,18.9-31.5,32-42.5c15.7-13.2,35.3-21.2,59.4-21.2
		c26.1,0,46.9,9.2,63.4,24.3c10.3,9.4,19,21.2,26.2,34.4c27.5,50.4,34.5,122.5,34.5,172.4L376.9,509L376.9,509z"/>
	<ellipse class="st1" cx="500.9" cy="304.3" rx="22" ry="16.3"/>
	<path class="st3" d="M489.5,211.9h20.9c0,0,4.3,67.3,5.7,90.8c-2.1,9.7-9.1,11.3-15.5,11.1c-8.2-0.2-15.9-4.7-17.1-12.5
		L489.5,211.9z"/>
	<path class="st6" d="M489.5,211.9h20.9c1.9,19-21.6,89.4-26.8,89.4L489.5,211.9z"/>
	
		<ellipse transform="matrix(4.889930e-02 -0.9988 0.9988 4.889930e-02 331.6472 732.048)" class="st7" cx="550.2" cy="191.9" rx="12.1" ry="12.1"/>
	<ellipse class="st7" cx="449" cy="186.3" rx="12.1" ry="12.1"/>
	
		<ellipse transform="matrix(4.889971e-02 -0.9988 0.9988 4.889971e-02 292.7605 673.3006)" class="st3" cx="499.9" cy="182.9" rx="61.8" ry="45.8"/>
	<path class="st8" d="M461.9,157.5c0.4-2.1,0.8-4.3,2-6.1c2.3-3.6,6.9-5,11.1-5.8c17.3-3,35,0.4,52.3,3.9c1.1,0.2,2.2,0.4,3.1,1
		c1.1,0.7,1.9,1.9,2.5,3.1c3.3,5.8,5.6,12,7,18.5c0.9,4,1.8,8.8,5.5,10.6c0.2,0.1,0.4,0.2,0.5,0.2c4.6-7.3,7.4-15.8,7.9-25
		c1.4-28.4-20.5-52.6-48.9-54s-51.8,20.6-54,48.9c-0.9,11.9-2.9,20,3.2,28.9C453.9,172.8,460.3,166.3,461.9,157.5z"/>
	<path class="st9" d="M455.7,178.8C455.7,178.9,455.6,178.9,455.7,178.8c-0.1-0.1,0-0.1,0-0.1c1.1-0.5,2.2-1,3.4-1.3"/>
	<path class="st9" d="M529.4,176.8c0.4-0.2,0.8-0.1,1.3,0c5,1.6,9.9,3.4,14.7,5.5"/>
	<path class="st9" d="M489.3,177.9c-0.2,0-0.3,0.1-0.5,0.1c3.3-1.4,7.1-1.4,10.4,0c-0.1,0.1-0.2,0.2-0.3,0.3"/>
	
		<ellipse transform="matrix(4.889930e-02 -0.9988 0.9988 4.889930e-02 268.6285 646.5018)" class="st10" cx="473.8" cy="182.2" rx="13.9" ry="15.2"/>
	
		<ellipse transform="matrix(4.889319e-02 -0.9988 0.9988 4.889319e-02 308.6403 686.3167)" class="st10" cx="514.7" cy="181.1" rx="13.9" ry="15.2"/>
	<g>
		<path id="rightMiddleLip_2_" d="M484,214.4c0.3,0,0.5,0.3,0.5,0.5s-0.3,0.5-0.5,0.5c-0.3,0-0.5-0.3-0.5-0.5S483.8,214.4,484,214.4
			z"/>
		<circle id="upperLipBottomMid_1_" cx="495.8" cy="214.7" r="0.5"/>
		<circle id="rightUpperLipBottom1_1_" cx="493.3" cy="214.4" r="0.5"/>
		<path id="leftMiddleLip_2_" d="M507.6,214.4c0.3,0,0.5,0.3,0.5,0.5s-0.3,0.5-0.5,0.5s-0.5-0.3-0.5-0.5S507.3,214.4,507.6,214.4z"
			/>
		<circle id="leftUpperLipBottom1_1_" cx="498.3" cy="214.4" r="0.5"/>
		<circle id="lowerLipTopMid_2_" cx="495.8" cy="216.7" r="0.5"/>
		<circle id="rightLowerLipTop0_2_" cx="493.3" cy="216.2" r="0.5"/>
		<circle id="leftLowerLipTop0_2_" cx="498.3" cy="216.2" r="0.5"/>
		<path class="st8" d="M539.6,207.8c0-0.5-0.1-1-0.4-1.4c-0.6-0.6-1.6-0.2-2.3,0.2c-6.9,4.2-10.3,12.8-17.5,16.4
			c-0.6,0.3-1.2,0.5-1.8,0.3c-0.7-0.3-0.9-1.2-1.1-2c-0.9-3.7-3.5-6.8-6.6-8.9c-3.2-2.1-6.9-3.1-10.7-3.5
			c-5.9-0.6-12.1,0.5-17.1,3.8c-2.1,1.4-4.6,3.5-5.3,6c-0.5,1.5-0.3,5.6-3.1,4.7c-0.8-0.2-1.3-1-1.7-1.7c-3.2-5.8-6.1-11.3-9.3-17.2
			c-0.3-0.6-2.2-1.9-2.8-2.3c-0.6-0.3-3.2-1.7-3.5-1.1l0,0c-0.2,0-0.4,0-0.6,0.3c-0.4,0.4-0.3,1-0.3,1.5c0.4,2.9,1.6,5.7,2.8,8.4
			c1,2.2,2,4.5,3.2,6.6c0,0.1,0.1,0.1,0.1,0.2c0.8,2.6,2.6,4.8,3.9,7.1c2.6,4.7,5.5,9.3,9.3,13.2c3.8,3.8,8.6,6.8,13.9,7.6
			c2.2,0.3,4.4,0.3,6.5,0.2c5.6-0.2,11.3-0.3,16.5-2.2c2.6-0.9,5.1-2.3,7.4-3.7c5.7-3.6,10.9-8.1,14.7-13.6
			C537.6,221.3,539.9,214.6,539.6,207.8z"/>
		<path class="st3" d="M486.3,228c-1.2-0.6-2.1-1.6-3-2.6c-1-1.2-2-2.4-2.4-3.8c-0.5-1.4,0.4-3.9,1.6-4.4c1.9-0.9,2.5-2,4.6-2.1
			c3.3-0.3,6.6-0.6,9.9-0.9c2.4-0.2,4.7,0.7,6.9,1.7c2.7,1.2,4.8,3,4.8,6c-0.1,2.9-1.9,5.8-4.5,7.1c-3.1,1.6-6.3,0.9-9.1-0.7
			C491.8,226.4,489.5,229.8,486.3,228z"/>
		<path class="st8" d="M491.4,222.1c0,0.6,0.4,1.1,0.7,1.5c0.1,0.1,0.3,0.3,0.4,0.4c0.3,0.2,0.7,0.1,1,0c0.8-0.2,1.6-0.6,2.1-1.2
			c0.1-0.1,0.2-0.2,0.2-0.3c0-0.1,0-0.2,0-0.4c-0.1-0.4-0.2-0.8-0.4-1.1c-0.2-0.3-0.6-0.6-1-0.6c-0.2,0-0.3,0-0.5,0.1
			C493,220.5,491.4,220.9,491.4,222.1z"/>
		<path class="st7" d="M481.3,217.4c0,0,4.8-5.1,7.5-5.5s4.6,1.2,4.6,1.2s2.4-1.6,4.2-1.3s9.9,6.2,9.9,6.2s-7.7,4.5-11.4,4.3
			c-3.7-0.2-7.4-0.8-14.9-4.1"/>
	</g>
	<g>
		<path class="st11" d="M508.9,176.6c4-2.1,9.2-1.8,12.9,0.9c0.2,0.1,0.4,0.3,0.5,0.6s-0.1,0.6-0.4,0.7s-0.5,0.2-0.8,0.3
			c-3.7,0.7-7.5,0.9-11.2,1.1c-1.1,0.1-2.3,0.1-3.4-0.3C505.1,179.3,508.3,176.9,508.9,176.6z"/>
		<circle class="st8" cx="513.3" cy="177.5" r="2.3"/>
		<circle id="leftEye0_1_" cx="523.5" cy="177.7" r="0.8"/>
		<circle id="leftEye1_1_" cx="518.3" cy="174" r="0.8"/>
		<circle id="leftEye5_1_" cx="518.3" cy="180" r="0.8"/>
		<circle id="leftEye2_1_" cx="512" cy="174" r="0.8"/>
		<circle id="leftEye3_1_" cx="506.8" cy="178.2" r="0.8"/>
		<circle id="leftEye4_1_" cx="512" cy="179.2" r="0.8"/>
	</g>
	<g>
		<path id="_x3C_패스_x3E_" class="st11" d="M469.7,178.9c1.8-1.3,3.9-2.4,6.1-2.6c2.2-0.3,4.6,0.3,6.3,1.8
			c0.3,0.2,0.5,0.5,0.6,0.8s0,0.7-0.2,0.9c-0.2,0.1-0.3,0.2-0.5,0.2c-0.5,0.1-0.9,0-1.4,0c-4.3,0-8.6,1.4-12.9,1.3
			C467.4,180.5,469.1,179.3,469.7,178.9z"/>
		<circle id="_x3C_패스_x3E__1_" class="st8" cx="475.4" cy="178.3" r="2.2"/>
		<circle id="rightEye0_1_" cx="466.8" cy="178.7" r="0.8"/>
		<circle id="rightEye1_1_" cx="472" cy="175" r="0.8"/>
		<circle id="rightEye5_1_" cx="472" cy="181" r="0.8"/>
		<circle id="rightEye2_1_" cx="478.3" cy="175" r="0.8"/>
		<circle id="rightEye3_1_" cx="483.5" cy="179.2" r="0.8"/>
		<circle id="rightEye4_1_" cx="478.3" cy="180.2" r="0.8"/>
	</g>
	<g>
		<path class="st8" d="M490.1,165.1c-1.9-4.2-13.1-2.2-17.9-1.4c-0.7,0.1-2.1,0.3-3.5,1.3c-3.1,2.1-4.6,6.3-3.6,7.2
			c0.8,0.8,2.6-1.4,6.4-2.6c8.4-2.7,14.9,2.9,17.8-0.2C490.5,168.3,490.7,166.4,490.1,165.1z"/>
		<circle id="rightBrow1_1_" cx="465.2" cy="163.7" r="0.8"/>
		<circle id="rightBrow4_1_" cx="488.5" cy="166.7" r="0.8"/>
		<circle id="rightBrow3_1_" cx="478.7" cy="162.7" r="0.8"/>
		<circle id="rightBrow0_1_" cx="461.2" cy="167.4" r="0.8"/>
		<circle id="rightBrow2_1_" cx="471.4" cy="162.7" r="0.8"/>
	</g>
	<g>
		<path class="st8" d="M499.5,165.1c1.8-4.2,13.1-2.6,17.8-1.9c0.6,0.1,2,0.3,3.5,1.2c2.9,1.7,4.8,5.1,4.1,5.8
			c-0.6,0.6-2.5-1.1-5.7-2c-8.8-2.6-15.8,4.2-19,1.1C499.2,168.3,499,166.4,499.5,165.1z"/>
		<circle id="leftBrow1_1_" cx="526.7" cy="164.6" r="0.8"/>
		<circle id="leftBrow4_1_" cx="503.1" cy="166.7" r="0.8"/>
		<circle id="leftBrow3_1_" cx="513.1" cy="163.5" r="0.8"/>
		<circle id="leftBrow0_1_" cx="530.7" cy="167.5" r="0.8"/>
		<circle id="leftBrow2_1_" cx="520.4" cy="163.1" r="0.8"/>
	</g>
	<g>
		<circle class="st8" cx="499.6" cy="202" r="1.8"/>
		<circle class="st8" cx="488.8" cy="202" r="1.8"/>
		<path class="st11" d="M484.6,196.8c-0.8,0.7-1.4,1.6-1.7,2.7c-0.2,0.7-0.2,1.4-0.1,2.1c0.1,0.5,0.2,0.9,0.4,1.4
			c0.4,0.9,1.1,1.6,2,1.9"/>
		<path class="st11" d="M503.8,197.1C503.9,197.1,503.8,197.1,503.8,197.1C503.7,197.2,503.8,197.2,503.8,197.1
			c0.9,0.5,1.6,1.4,1.9,2.3c0.3,0.9,0.3,2,0.1,2.9c-0.2,0.9-0.7,1.9-1.6,2.3"/>
		<circle id="nose1_1_" cx="493.9" cy="185.4" r="0.8"/>
		<circle id="nose0_1_" cx="493.9" cy="179.6" r="0.8"/>
		<circle id="nose3_1_" cx="493.9" cy="198" r="0.8"/>
		<circle id="rightNose0_1_" cx="483.2" cy="202.5" r="0.8"/>
		<circle id="rightNose1_1_" cx="488.4" cy="202.5" r="0.8"/>
		<circle id="nose2_1_" cx="493.9" cy="190.9" r="0.8"/>
		<circle id="nose4_1_" cx="493.9" cy="203.3" r="0.8"/>
		<circle id="leftNose0_1_" cx="504.3" cy="202.5" r="0.8"/>
		<circle id="leftNose1_1_" cx="499.5" cy="202.5" r="0.8"/>
	</g>
</g>
<g id="skeleton_1_" class="st12">
	<circle id="rightShoulder" class="st13" cx="395.1" cy="303.4" r="7.8"/>
	<circle id="rightElbow" class="st13" cx="296.4" cy="303.5" r="7.8"/>
	
		<ellipse id="rightWrist" transform="matrix(0.9806 -0.1961 0.1961 0.9806 -57.9846 33.5631)" class="st13" cx="140.5" cy="309.6" rx="7.8" ry="7.8"/>
	<circle id="rightHip" class="st13" cx="443.1" cy="509.3" r="7.8"/>
	<circle id="rightKnee" class="st13" cx="449.2" cy="662.1" r="7.8"/>
	<circle id="rightAnkle" class="st13" cx="449.2" cy="860.5" r="7.8"/>
	<circle id="leftShoulder" class="st13" cx="598.1" cy="303.4" r="7.8"/>
	<circle id="leftElbow" class="st13" cx="697.7" cy="303.2" r="7.8"/>
	<circle id="leftWrist" class="st13" cx="853.6" cy="309.2" r="7.8"/>
	<circle id="leftHip" class="st13" cx="554.1" cy="508.5" r="7.8"/>
	<circle id="leftKnee" class="st13" cx="554.1" cy="662.1" r="7.8"/>
	<circle id="leftAnkle" class="st13" cx="554.1" cy="860.5" r="7.8"/>
	<polygon class="st14" points="395,303.7 443,509.6 554,508.8 598.1,303.7 	"/>
	<polyline class="st14" points="394,303.7 296.1,303.7 140.3,309.7 	"/>
	<polyline class="st14" points="599.5,303.3 697.9,303.3 853.7,309.4 	"/>
	<polyline class="st14" points="443,509.6 449.1,662.4 449.1,860.8 	"/>
	<polyline class="st14" points="554,508.8 554,662.4 554,860.8 	"/>
	<circle id="rightEye0" class="st13" cx="467.4" cy="178.5" r="0.8"/>
	<circle id="rightBrow1" class="st13" cx="465.3" cy="164.2" r="0.8"/>
	<circle id="rightBrow4" class="st13" cx="487.5" cy="167" r="0.8"/>
	<circle id="nose1" class="st13" cx="494" cy="185.5" r="0.8"/>
	<circle id="rightBrow3" class="st13" cx="478.2" cy="163.2" r="0.8"/>
	<circle id="rightEye1" class="st13" cx="472.3" cy="175" r="0.8"/>
	<circle id="rightBrow0" class="st13" cx="461.5" cy="167.7" r="0.8"/>
	<circle id="rightBrow2" class="st13" cx="471.2" cy="163.2" r="0.8"/>
	<circle id="rightEye5" class="st13" cx="472.3" cy="180.7" r="0.8"/>
	<circle id="rightEye2" class="st13" cx="478.3" cy="175" r="0.8"/>
	<circle id="rightEye3" class="st13" cx="483.3" cy="179" r="0.8"/>
	<circle id="nose0" class="st13" cx="494" cy="180" r="0.8"/>
	<circle id="nose3" class="st13" cx="494" cy="197.5" r="0.8"/>
	<circle id="rightNose0" class="st13" cx="483.8" cy="201.8" r="0.8"/>
	<circle id="rightMouthCorner" class="st13" cx="479.1" cy="213.9" r="0.8"/>
	<circle id="rightNose1" class="st13" cx="488.8" cy="201.8" r="0.8"/>
	<circle id="rightUpperLipTop0" class="st13" cx="485.7" cy="210.6" r="0.8"/>
	<circle id="nose2" class="st13" cx="494" cy="190.7" r="0.8"/>
	<circle id="nose4" class="st13" cx="494" cy="202.6" r="0.8"/>
	<circle id="upperLipTopMid" class="st13" cx="495.8" cy="210.4" r="0.8"/>
	<circle id="rightUpperLipTop1" class="st13" cx="491.9" cy="209.6" r="0.8"/>
	<path id="rightMiddleLip" class="st13" d="M482.5,213.4c0.4,0,0.8,0.4,0.8,0.8c0,0.4-0.4,0.8-0.8,0.8s-0.8-0.4-0.8-0.8
		S482.2,213.4,482.5,213.4z"/>
	<circle id="lowerLipBottomMid" class="st13" cx="495.8" cy="223" r="0.8"/>
	<circle id="upperLipBottomMid" class="st13" cx="495.8" cy="213.9" r="0.8"/>
	<circle id="lowerLipTopMid" class="st13" cx="495.8" cy="216.8" r="0.8"/>
	<circle id="rightUpperLipBottom1" class="st13" cx="492.1" cy="213.4" r="0.8"/>
	<circle id="rightLowerLipTop0" class="st13" cx="492.1" cy="216.2" r="0.8"/>
	<circle id="rightLowerLipBottom1" class="st13" cx="491.9" cy="222.6" r="0.8"/>
	<circle id="rightLowerLipBottom0" class="st13" cx="485.2" cy="219.9" r="0.8"/>
	<circle id="rightEye4" class="st13" cx="478.3" cy="180" r="0.8"/>
	<circle id="jawMid" class="st13" cx="495.8" cy="247.6" r="0.8"/>
	<circle id="rightJaw7" class="st13" cx="481.5" cy="244.6" r="0.8"/>
	<circle id="rightJaw6" class="st13" cx="472" cy="238.2" r="0.8"/>
	<circle id="rightJaw5" class="st13" cx="460.9" cy="226.3" r="0.8"/>
	<circle id="rightJaw4" class="st13" cx="454.4" cy="207.2" r="0.8"/>
	<circle id="rightJaw3" class="st13" cx="453.6" cy="186.5" r="0.8"/>
	<circle id="rightJaw2" class="st13" cx="453.6" cy="177.4" r="0.8"/>
	<circle id="rightJaw1" class="st13" cx="454.4" cy="166.3" r="0.8"/>
	<circle id="rightJaw0" class="st13" cx="456.8" cy="157.4" r="0.8"/>
	<circle id="topMid" class="st13" cx="496" cy="132.5" r="0.8"/>
	<circle id="leftTop0" class="st13" cx="514.8" cy="134.9" r="0.8"/>
	<circle id="leftTop1" class="st13" cx="526.8" cy="144" r="0.8"/>
	<circle id="leftEye0" class="st13" cx="523.2" cy="177.5" r="0.8"/>
	<circle id="leftBrow1" class="st13" cx="526" cy="164.6" r="0.8"/>
	<circle id="leftBrow4" class="st13" cx="503.5" cy="166.6" r="0.8"/>
	<circle id="leftBrow3" class="st13" cx="513.1" cy="163.5" r="0.8"/>
	<circle id="leftEye1" class="st13" cx="518.3" cy="174" r="0.8"/>
	<circle id="leftBrow0" class="st13" cx="529.9" cy="167.3" r="0.8"/>
	<circle id="leftBrow2" class="st13" cx="520" cy="163.1" r="0.8"/>
	<circle id="leftEye5" class="st13" cx="518.3" cy="179.7" r="0.8"/>
	<circle id="leftEye2" class="st13" cx="512.3" cy="174" r="0.8"/>
	<circle id="leftEye3" class="st13" cx="507.3" cy="178" r="0.8"/>
	<circle id="leftNose0" class="st13" cx="504" cy="201.8" r="0.8"/>
	<circle id="leftMouthCorner" class="st13" cx="512.5" cy="213.9" r="0.8"/>
	<circle id="leftNose1" class="st13" cx="499.4" cy="201.8" r="0.8"/>
	<circle id="leftUpperLipTop0" class="st13" cx="505.9" cy="210.6" r="0.8"/>
	<circle id="leftUpperLipTop1" class="st13" cx="499.8" cy="209.6" r="0.8"/>
	<path id="leftMiddleLip" class="st13" d="M509.1,213.4c0.4,0,0.8,0.4,0.8,0.8c0,0.4-0.4,0.8-0.8,0.8s-0.8-0.4-0.8-0.8
		S508.7,213.4,509.1,213.4z"/>
	<circle id="leftUpperLipBottom1" class="st13" cx="499.6" cy="213.4" r="0.8"/>
	<circle id="leftLowerLipTop0" class="st13" cx="499.6" cy="216.2" r="0.8"/>
	<circle id="leftLowerLipBottom1" class="st13" cx="499.8" cy="222.6" r="0.8"/>
	<circle id="leftLowerLipBottom0" class="st13" cx="506.4" cy="219.9" r="0.8"/>
	<circle id="leftEye4" class="st13" cx="512.3" cy="179" r="0.8"/>
	<circle id="leftJaw7" class="st13" cx="509.9" cy="245" r="0.8"/>
	<circle id="leftJaw6" class="st13" cx="519.5" cy="238.6" r="0.8"/>
	<circle id="leftJaw5" class="st13" cx="530.5" cy="226.6" r="0.8"/>
	<circle id="leftJaw4" class="st13" cx="537" cy="207.5" r="0.8"/>
	<circle id="leftJaw3" class="st13" cx="537.8" cy="186.9" r="0.8"/>
	<circle id="leftJaw2" class="st13" cx="537.8" cy="177.7" r="0.8"/>
	<circle id="leftJaw1" class="st13" cx="537" cy="166.6" r="0.8"/>
	<circle id="leftJaw0" class="st13" cx="534.6" cy="157.8" r="0.8"/>
	<polyline class="st14" points="495.8,132.5 476.9,134.9 465,144 456.8,157.4 454.4,166.3 453.6,177.4 453.6,186.5 454.4,207.2 
		460.9,226.3 472,238.2 481.5,244.6 495.8,247.6 509.9,245 519.5,238.6 530.5,226.6 537,207.5 537.8,186.9 537.8,177.7 537,166.6 
		534.6,157.8 526.8,144 514.8,134.9 495.8,132.5 	"/>
	<polyline class="st14" points="461.5,167.7 465.3,164.2 471.2,163.2 478.2,163.2 487.5,167 	"/>
	<polygon class="st14" points="467.4,178.5 472.3,175 478.3,175 483.3,179 478.3,180 472.3,180.7 	"/>
	<polyline class="st14" points="483.8,201.8 488.8,201.8 494,202.6 494,197.5 494,190.7 494,185.5 494,180 	"/>
	<polyline class="st14" points="529.7,167.3 525.8,164.6 519.8,163.1 512.9,163.5 503.3,166.6 	"/>
	<polygon class="st14" points="523,177.5 518,174 512,174 507.1,178 512,179 518,179.7 	"/>
	<polyline class="st14" points="504,201.8 499.2,201.8 494,202.6 	"/>
	<polygon class="st14" points="479.1,213.9 485.7,210.6 491.9,209.6 495.8,210.4 499.8,209.6 505.9,210.6 512.5,213.9 506.4,219.9 
		499.6,222.6 495.8,223 491.9,222.6 485.2,219.9 	"/>
	<polyline class="st14" points="479.1,213.9 482.5,214.2 492.1,213.4 495.8,213.9 499.6,213.4 509.1,214.2 512.5,213.9 	"/>
	<polyline class="st14" points="479.1,213.9 482.5,214.2 492.1,216.2 495.8,216.9 499.6,216.2 509.1,214.2 512.5,213.9 	"/>
	<circle id="rightTop0" class="st13" cx="477" cy="134.9" r="0.8"/>
	<circle id="rightTop1" class="st13" cx="465" cy="144" r="0.8"/>
</g>
</svg>
